<svg width="42" height="43" viewBox="0 0 42 43" fill="none" xmlns="http://www.w3.org/2000/svg">
<g clip-path="url(#clip0_85_3526)">
<path d="M9.45468 5.90501C10.4476 5.96617 11.4445 6.11772 12.4308 6.05923C13.2045 6.0127 13.9807 5.75744 14.7238 5.50219C15.4535 5.25092 15.8988 4.65267 16.3268 4.0132C16.812 3.29131 17.3544 2.56277 18.0163 2.01238C19.6779 0.633741 21.8046 0.549985 23.6137 1.72655C24.1308 2.0629 24.5841 2.52289 25.0015 2.98554C25.4654 3.49871 25.8163 4.11557 26.2855 4.62209C26.9408 5.32936 27.8128 5.7149 28.7579 5.78004C29.7096 5.84652 30.684 5.84386 31.6291 5.72421C34.4284 5.36924 36.724 6.86753 37.1946 9.53441C37.3262 10.2816 37.1879 11.0859 37.1109 11.8583C36.9407 13.5626 37.0603 15.2085 38.246 16.5526C38.7764 17.1535 39.4463 17.6441 40.103 18.1147C41.9041 19.4016 42.4145 21.7507 41.6622 23.6279C41.2913 24.5532 40.7556 25.3522 39.9262 25.9451C39.3227 26.3772 38.698 26.804 38.1849 27.3331C37.4139 28.1268 37.1015 29.1598 37.0829 30.2486C37.0683 31.0915 37.1029 31.945 37.2278 32.7772C37.7369 36.1753 34.685 38.6095 31.9242 38.1389C30.583 37.9102 29.2125 37.7786 27.8899 38.2864C26.9634 38.6427 26.1699 39.1612 25.593 40.0267C25.1477 40.6954 24.6187 41.3508 23.9966 41.8507C21.8724 43.555 18.7966 43.1416 17.1257 40.9959C16.6485 40.383 16.2272 39.7143 15.6875 39.1625C14.9125 38.3702 13.8877 38.0299 12.7977 38.0006C11.9217 37.978 11.0258 37.978 10.1698 38.1335C7.28669 38.656 4.3052 36.1274 4.79968 32.6868C4.94456 31.6804 4.98178 30.6261 4.85285 29.6211C4.68802 28.3382 4.04068 27.2733 2.9188 26.5048C2.24222 26.0409 1.57627 25.5024 1.06451 24.8683C-0.266057 23.2171 -0.303275 21.3878 0.694984 19.5664C1.02729 18.9602 1.55633 18.4404 2.06676 17.9578C2.58118 17.4726 3.22187 17.1216 3.73894 16.6377C4.41686 16.0048 4.80234 15.1633 4.86481 14.2553C4.9326 13.2715 4.9233 12.2651 4.80367 11.2866C4.48996 8.72743 5.99334 6.51124 8.51623 5.95819C8.82063 5.89172 9.13965 5.88773 9.45202 5.85582C9.45335 5.8731 9.45335 5.88906 9.45468 5.90501ZM19.2113 24.3299C19.0744 24.2009 18.9548 24.0919 18.8391 23.9776C17.91 23.0509 16.9901 22.115 16.0517 21.199C15.3605 20.525 14.325 20.5236 13.6777 21.1658C13.0303 21.8092 13.021 22.8568 13.6936 23.5388C15.0694 24.9334 16.4584 26.3161 17.8502 27.696C18.3074 28.1494 18.8511 28.3129 19.4931 28.1281C20.0913 27.9553 20.6362 27.7306 21.0576 27.2307C21.4205 26.8 21.8485 26.4264 22.2473 26.0262C24.4432 23.83 26.6351 21.6324 28.8363 19.4415C29.2723 19.0081 29.5554 18.5202 29.4677 17.8927C29.3747 17.2346 29.0198 16.752 28.3738 16.5353C27.6746 16.3013 27.0751 16.4834 26.5567 17.0033C24.2465 19.3192 21.9323 21.6311 19.618 23.9443C19.4918 24.0706 19.3588 24.1916 19.2113 24.3299Z" fill="#10B390"/>
</g>
<defs>
<clipPath id="clip0_85_3526">
<rect width="42" height="42" fill="white" transform="translate(0 0.90625)"/>
</clipPath>
</defs>
</svg>
