<svg width="8" height="36" viewBox="0 0 8 36" fill="none" xmlns="http://www.w3.org/2000/svg">
<path d="M0.849806 12L6.49981 12L6.49981 35.5L0.849806 35.5L0.849806 12ZM7.29981 3.49999C7.29981 4.56666 6.99981 5.43333 6.39981 6.1C5.76647 6.8 4.86647 7.15 3.69981 7.15C2.56647 7.15 1.66647 6.8 0.999807 6.1C0.333141 5.43333 -0.000192799 4.56666 -0.000192706 3.49999C-0.000192621 2.53332 0.333141 1.69999 0.999808 0.999992C1.66647 0.333324 2.56647 -8.0432e-06 3.69981 -7.94412e-06C4.79981 -7.84795e-06 5.68314 0.333324 6.34981 0.999992C6.98314 1.66666 7.29981 2.49999 7.29981 3.49999Z" fill="currentColor"/>
</svg>
