<svg width="16" height="9" viewBox="0 0 16 9" fill="none" xmlns="http://www.w3.org/2000/svg">
<path d="M0 4.38186C0.16649 4.15224 0.31539 3.90909 0.501924 3.69494C1.50782 2.53912 2.68347 1.57426 4.10457 0.89468C5.07446 0.430806 6.09713 0.135086 7.18238 0.0376719C9.2907 -0.151357 11.1978 0.37746 12.9441 1.47839C14.078 2.19314 15.0229 3.09422 15.8472 4.11358C16.0505 4.36485 16.0509 4.63737 15.8484 4.88787C14.8978 6.06418 13.7872 7.07542 12.4295 7.82844C11.307 8.4512 10.1043 8.84665 8.80269 8.96301C6.9083 9.13232 5.15873 8.71599 3.53106 7.80602C2.18523 7.05377 1.08566 6.04523 0.1444 4.87511C0.0830404 4.79896 0.0474516 4.70425 0 4.61805C0 4.53919 0 4.46072 0 4.38186ZM7.89047 1.3257C6.06481 1.35817 4.60649 2.82401 4.63758 4.59447C4.66785 6.32549 6.22435 7.70745 8.10605 7.67382C9.92558 7.64174 11.3937 6.16661 11.3606 4.40389C11.3283 2.67209 9.77299 1.29207 7.89047 1.3257Z" fill="black"/>
<path d="M8.00501 2.78806C8.988 2.7869 9.80776 3.54882 9.81104 4.46651C9.81431 5.43137 8.99945 6.21068 7.98824 6.20991C7.00321 6.20914 6.18958 5.4391 6.18917 4.50826C6.18917 3.56505 7.00812 2.78961 8.00501 2.78806Z" fill="black"/>
</svg>
