<svg viewBox="0 0 20 18" fill="none" xmlns="http://www.w3.org/2000/svg">
<g clip-path="url(#clip0_54_31)">
<path d="M9.88913 2.19183C10.3681 1.77926 10.798 1.33838 11.2936 0.992833C14.5979 -1.31444 19.1835 0.608575 19.8963 4.60716C20.2304 6.47933 19.7571 8.16082 18.4519 9.53432C16.8554 11.2141 15.2063 12.8424 13.5789 14.4921C12.5161 15.5698 11.4526 16.6474 10.3892 17.7245C10.0243 18.0943 9.78593 18.092 9.41586 17.7158C6.79861 15.0578 4.17623 12.405 1.5664 9.73945C0.652926 8.80568 0.143732 7.6662 0.0245585 6.35394C-0.208086 3.79011 1.22941 1.40656 3.60375 0.540969C5.79904 -0.259904 7.77253 0.19196 9.48315 1.80295C9.61372 1.92603 9.73746 2.05546 9.86519 2.18143C9.87488 2.1901 9.89084 2.19241 9.88913 2.19183Z" fill="currentColor"/>
</g>
<defs>
<clipPath id="clip0_54_31">
<rect width="20" height="18" fill="white"/>
</clipPath>
</defs>
</svg>
