<svg width="48" height="48" viewBox="0 0 48 48" fill="none" xmlns="http://www.w3.org/2000/svg">
<path fill-rule="evenodd" clip-rule="evenodd" d="M24 6C19.1112 6 18.4992 6.0204 16.5792 6.108C14.6628 6.1956 13.3536 6.5004 12.2088 6.9456C11.0088 7.3968 9.9204 8.1048 9.0204 9.0216C8.10507 9.92056 7.39663 11.0082 6.9444 12.2088C6.5016 13.3536 6.1956 14.664 6.108 16.5804C6.0216 18.4992 6 19.11 6 24C6 28.89 6.0204 29.5008 6.108 31.4208C6.1956 33.3372 6.5004 34.6464 6.9456 35.7912C7.3968 36.9912 8.1048 38.0796 9.0216 38.9796C9.92058 39.8949 11.0082 40.6033 12.2088 41.0556C13.3536 41.4996 14.6628 41.8044 16.5792 41.892C18.4992 41.9796 19.1112 42 24 42C28.8888 42 29.5008 41.9796 31.4208 41.892C33.3372 41.8044 34.6464 41.4996 35.7912 41.0544C36.9912 40.6032 38.0796 39.8952 38.9796 38.9784C39.8949 38.0794 40.6034 36.9918 41.0556 35.7912C41.4996 34.6464 41.8044 33.3372 41.892 31.4208C41.9796 29.5008 42 28.8888 42 24C42 19.1112 41.9796 18.4992 41.892 16.5792C41.8044 14.6628 41.4996 13.3536 41.0544 12.2088C40.6025 11.0077 39.894 9.91959 38.9784 9.0204C38.0794 8.10507 36.9918 7.39663 35.7912 6.9444C34.6464 6.5016 33.336 6.1956 31.4196 6.108C29.5008 6.0216 28.89 6 24 6ZM24 9.2436C28.806 9.2436 29.376 9.2616 31.2744 9.348C33.0288 9.4284 33.9816 9.72 34.6164 9.9684C35.4564 10.2936 36.0564 10.6848 36.6864 11.3136C37.3164 11.9436 37.7064 12.5436 38.0316 13.3836C38.2788 14.0184 38.5716 14.9712 38.652 16.7256C38.7384 18.624 38.7564 19.194 38.7564 24C38.7564 28.806 38.7384 29.376 38.652 31.2744C38.5716 33.0288 38.28 33.9816 38.0316 34.6164C37.7435 35.3983 37.2839 36.1056 36.6864 36.6864C36.1057 37.284 35.3983 37.7437 34.6164 38.0316C33.9816 38.2788 33.0288 38.5716 31.2744 38.652C29.376 38.7384 28.8072 38.7564 24 38.7564C19.1928 38.7564 18.624 38.7384 16.7256 38.652C14.9712 38.5716 14.0184 38.28 13.3836 38.0316C12.6017 37.7435 11.8944 37.2839 11.3136 36.6864C10.7162 36.1055 10.2566 35.3982 9.9684 34.6164C9.7212 33.9816 9.4284 33.0288 9.348 31.2744C9.2616 29.376 9.2436 28.806 9.2436 24C9.2436 19.194 9.2616 18.624 9.348 16.7256C9.4284 14.9712 9.72 14.0184 9.9684 13.3836C10.2936 12.5436 10.6848 11.9436 11.3136 11.3136C11.8943 10.7161 12.6017 10.2564 13.3836 9.9684C14.0184 9.7212 14.9712 9.4284 16.7256 9.348C18.624 9.2616 19.194 9.2436 24 9.2436Z" fill="currentColor"/>
<path fill-rule="evenodd" clip-rule="evenodd" d="M24 30.0056C23.2113 30.0056 22.4303 29.8502 21.7016 29.5484C20.973 29.2466 20.3109 28.8042 19.7532 28.2465C19.1955 27.6888 18.7531 27.0267 18.4512 26.298C18.1494 25.5693 17.994 24.7883 17.994 23.9996C17.994 23.2109 18.1494 22.4299 18.4512 21.7012C18.7531 20.9725 19.1955 20.3104 19.7532 19.7527C20.3109 19.195 20.973 18.7526 21.7016 18.4508C22.4303 18.1489 23.2113 17.9936 24 17.9936C25.5929 17.9936 27.1206 18.6264 28.2469 19.7527C29.3733 20.879 30.006 22.4067 30.006 23.9996C30.006 25.5925 29.3733 27.1201 28.2469 28.2465C27.1206 29.3728 25.5929 30.0056 24 30.0056ZM24 14.7476C21.5463 14.7476 19.193 15.7223 17.4579 17.4574C15.7228 19.1925 14.748 21.5458 14.748 23.9996C14.748 26.4534 15.7228 28.8066 17.4579 30.5417C19.193 32.2768 21.5463 33.2516 24 33.2516C26.4538 33.2516 28.8071 32.2768 30.5422 30.5417C32.2773 28.8066 33.252 26.4534 33.252 23.9996C33.252 21.5458 32.2773 19.1925 30.5422 17.4574C28.8071 15.7223 26.4538 14.7476 24 14.7476ZM35.9436 14.5796C35.9436 15.1596 35.7132 15.7159 35.3031 16.126C34.8929 16.5362 34.3367 16.7666 33.7566 16.7666C33.1766 16.7666 32.6203 16.5362 32.2102 16.126C31.8001 15.7159 31.5696 15.1596 31.5696 14.5796C31.5696 13.9995 31.8001 13.4433 32.2102 13.0331C32.6203 12.623 33.1766 12.3926 33.7566 12.3926C34.3367 12.3926 34.8929 12.623 35.3031 13.0331C35.7132 13.4433 35.9436 13.9995 35.9436 14.5796Z" fill="currentColor"/>
</svg>
