<svg width="23" height="23" viewBox="0 0 23 23" fill="none" xmlns="http://www.w3.org/2000/svg">
<path d="M15.4531 0C15.7825 0 16.1119 0 16.4414 0C16.633 0.0281488 16.8247 0.0574955 17.0163 0.0850454C20.7136 0.612088 23.5047 4.16663 22.9237 7.95834C22.3403 11.7626 18.6964 14.9518 14.2522 13.8343C14.1091 13.7983 14.0216 13.8295 13.9222 13.9325C13.5527 14.3146 13.1711 14.6847 12.7986 15.0632C12.5985 15.2663 12.3667 15.3717 12.0775 15.3633C11.7636 15.3537 11.4486 15.3609 11.1347 15.3609C10.8981 15.3609 10.6616 15.3609 10.4118 15.3609C10.4118 15.9532 10.416 16.5144 10.4106 17.075C10.4058 17.5673 10.0998 17.8787 9.6182 17.8919C9.49841 17.8949 9.37862 17.8901 9.25883 17.8901C8.80544 17.8895 8.35204 17.8901 7.87468 17.8901C7.87468 17.9979 7.87468 18.0787 7.87468 18.159C7.87468 18.6303 7.87647 19.1023 7.87408 19.5736C7.87108 20.1258 7.56143 20.4361 7.014 20.4397C6.73729 20.4415 6.45997 20.4403 6.18326 20.4403C5.90895 20.4403 5.63463 20.4403 5.34355 20.4403C5.34355 21.0206 5.34594 21.5728 5.34295 22.1256C5.34055 22.6442 5.03569 22.9539 4.52479 22.9593C3.34967 22.9719 2.17454 22.9689 1.00001 23C0.524453 23.0126 0.189644 22.8569 0.000976562 22.4155C0.000976562 21.3524 0.000976562 20.2893 0.000976562 19.2263C0.0105596 19.0478 0.0405068 18.8681 0.0261322 18.6914C-0.00740863 18.2782 0.148915 17.9727 0.442996 17.6805C3.32032 14.8201 6.18566 11.9477 9.05639 9.0807C9.15102 8.98607 9.20733 8.90821 9.1672 8.75549C8.90246 7.74872 8.85455 6.72638 9.07795 5.70942C9.69007 2.92508 11.3611 1.09721 14.0953 0.26951C14.5349 0.135354 14.9997 0.0874411 15.4531 0ZM19.3247 5.25964C19.3313 4.41937 18.6041 3.67911 17.7614 3.66953C16.9624 3.65995 16.2293 4.37445 16.2185 5.1728C16.2072 6.01247 16.9612 6.77908 17.798 6.77908C18.5993 6.77908 19.3181 6.06398 19.3247 5.25964Z" fill="currentColor"/>
</svg>
