<svg width="28" height="20" viewBox="0 0 28 20" fill="none" xmlns="http://www.w3.org/2000/svg">
<path d="M0 2.16972C0.0745117 1.93508 0.14834 1.70112 0.244043 1.39844C3.0584 4.31489 5.83721 7.19315 8.54834 10.002C5.84678 12.7997 3.06318 15.6822 0.243359 18.6028C0.147656 18.3008 0.0738281 18.0661 0 17.8315C0 12.6109 0 7.39031 0 2.16972Z" fill="currentColor"/>
<path d="M28 17.8294C27.9262 18.0641 27.8517 18.298 27.756 18.6007C24.9416 15.6843 22.1642 12.8053 19.4517 9.99506C22.1532 7.19871 24.9368 4.31697 27.7566 1.39844C27.8517 1.69834 27.9255 1.93299 28 2.16695C28 7.38823 28 12.6088 28 17.8294Z" fill="currentColor"/>
<path d="M1.4397 0.168245C1.84028 0.113401 2.24087 0.0120434 2.64146 0.0113492C9.14858 0.00163001 15.6557 0.00440692 22.1628 0.00440692C23.2566 0.00440692 24.3503 -0.00947763 25.4434 0.0120434C25.818 0.0196799 26.1899 0.11826 26.6335 0.1856C26.5139 0.320975 26.4633 0.384149 26.4066 0.441076C22.8861 3.99899 19.3656 7.5576 15.8437 11.1141C15.0863 11.8792 14.1935 12.1652 13.1736 11.7827C12.8188 11.6494 12.4702 11.4154 12.2001 11.144C8.64272 7.57149 5.09966 3.98372 1.55317 0.399422C1.51489 0.36124 1.48071 0.318892 1.44448 0.278627C1.44312 0.241833 1.44106 0.205039 1.4397 0.168245Z" fill="currentColor"/>
<path d="M18.1187 11.1589C20.9193 14.0593 23.6981 16.9376 26.477 19.8159C26.2773 19.8617 25.9923 19.9311 25.7052 19.9908C25.6259 20.0075 25.5418 19.9991 25.4598 19.9991C17.824 19.9991 10.1883 20.0019 2.55254 19.9922C2.18066 19.9915 1.80879 19.8846 1.4834 19.8339C4.28545 16.932 7.06494 14.0538 9.87109 11.1484C10.2655 11.5511 10.5978 11.9308 10.973 12.2613C11.3483 12.5917 11.7339 12.9389 12.1721 13.1638C13.81 14.0066 15.6276 13.6733 16.9675 12.3335C17.3414 11.96 17.7092 11.5775 18.1187 11.1589Z" fill="currentColor"/>
</svg>
