<svg width="20" height="30" viewBox="0 0 20 30" fill="none" xmlns="http://www.w3.org/2000/svg">
<path d="M7.9668 16.8429V19.7143H16.639V24.0429H7.9668V30H3.19502V24.0429H0V19.7143H3.19502V16.8429H0V12.3429H3.19502V0H10.3734C13.3887 0 15.74 0.7 17.4274 2.1C19.1425 3.47143 20 5.52857 20 8.27143C20 11.0429 19.1425 13.1714 17.4274 14.6571C15.7123 16.1143 13.361 16.8429 10.3734 16.8429H7.9668ZM7.9668 4.71429V12.3429H9.83402C13.1259 12.3429 14.7718 11.0143 14.7718 8.35714C14.7718 7.12857 14.3707 6.21429 13.5685 5.61429C12.7663 5.01429 11.4799 4.71429 9.70954 4.71429H7.9668Z" fill="currentColor"/>
</svg>
