<svg width="49" height="39" viewBox="0 0 49 39" fill="none" xmlns="http://www.w3.org/2000/svg">
<path d="M0 13.7435C0.088024 13.4681 0.168394 13.1888 0.266623 12.9173C0.876412 11.2466 2.41492 10.1462 4.15881 10.1397C5.86444 10.1345 7.57006 10.1371 9.27568 10.1397C9.83189 10.141 9.94926 10.2579 9.94926 10.8231C9.95053 16.6016 9.95053 22.3802 9.94926 28.1587C9.94926 28.7238 9.83189 28.8433 9.27696 28.8446C7.60323 28.8472 5.9295 28.8485 4.25577 28.8446C2.21973 28.8407 0.582999 27.526 0.0969539 25.5124C0.0739911 25.4201 0.0331684 25.3318 0 25.2409C0 21.4084 0 17.576 0 13.7435Z" fill="white"/>
<path d="M29.0864 19.4909C29.0864 25.1564 29.0864 30.8219 29.0864 36.4887C29.0864 38.0165 28.1423 38.9766 26.6447 38.9779C25.943 38.9792 25.235 39.0389 24.5423 38.9571C24.0422 38.8986 23.4771 38.7687 23.088 38.4712C19.812 35.9704 16.5666 33.428 13.325 30.8791C13.1566 30.7466 13.0265 30.4504 13.0265 30.2295C13.0112 23.07 13.0112 15.9105 13.0277 8.75223C13.0277 8.52228 13.1834 8.21569 13.3633 8.07408C16.578 5.54467 19.8081 3.03344 23.0344 0.51962C23.4924 0.162358 24.0014 -0.0156236 24.5869 -3.39732e-05C25.3192 0.019453 26.054 0.00126516 26.7863 0.00516256C28.0913 0.0129574 29.0825 1.01589 29.0838 2.3462C29.0876 8.06239 29.0851 13.7773 29.0864 19.4909Z" fill="white"/>
<path d="M37.2979 19.4728C35.7964 17.949 34.3319 16.4783 32.8865 14.9908C31.8826 13.958 31.894 12.4536 32.884 11.5299C33.8229 10.653 35.1841 10.6998 36.1498 11.6676C37.5008 13.0239 38.8352 14.3971 40.1772 15.7625C40.2984 15.8859 40.4273 16.0016 40.5727 16.1406C40.7207 15.9977 40.8482 15.8807 40.9694 15.7573C42.323 14.3802 43.6599 12.9863 45.0326 11.6313C46.3861 10.2945 48.5178 10.9064 48.9362 12.742C49.1403 13.6371 48.8469 14.3971 48.2129 15.0402C46.89 16.3796 45.5747 17.7255 44.2544 19.0662C44.1306 19.1909 43.9878 19.2962 43.8155 19.4417C43.9839 19.6235 44.0962 19.7522 44.2148 19.8743C45.5671 21.2527 46.9334 22.6167 48.2678 24.012C49.5907 25.3943 49.0255 27.5483 47.2281 28.0056C46.3504 28.229 45.599 27.9458 44.9662 27.3001C43.6382 25.9438 42.3051 24.5927 40.9796 23.2325C40.8584 23.1078 40.7781 22.9402 40.6594 22.7635C40.4336 22.9779 40.3048 23.0935 40.1836 23.2156C38.8301 24.5914 37.4918 25.9841 36.1205 27.343C34.7644 28.6863 32.6416 28.0965 32.204 26.2647C31.991 25.3722 32.2729 24.6083 32.9095 23.9639C34.2439 22.6141 35.5706 21.2566 36.9012 19.9016C37.0224 19.7755 37.1385 19.6456 37.2979 19.4728Z" fill="white"/>
</svg>
