<svg width="23" height="23" viewBox="0 0 23 23" fill="none" xmlns="http://www.w3.org/2000/svg">
<path d="M14.6688 3.30469C16.3482 4.9821 18.02 6.65184 19.7045 8.33436C19.6694 8.37462 19.6265 8.4283 19.5779 8.47686C15.5056 12.5493 11.4333 16.6224 7.35712 20.691C7.2363 20.8117 7.08798 20.9293 6.92943 20.9855C5.34398 21.5479 3.75468 22.1013 2.16283 22.6463C1.78629 22.7754 1.39823 22.8732 1.01082 22.9658C0.331885 23.1275 -0.161653 22.6221 0.048037 21.9568C0.450794 20.6801 0.877206 19.4104 1.30042 18.1394C1.52162 17.4735 1.74921 16.8102 1.99022 16.1514C2.05096 15.9846 2.14813 15.8146 2.27215 15.69C6.3579 11.5965 10.4488 7.50875 14.539 3.42035C14.5844 3.37626 14.633 3.33664 14.6688 3.30469Z" fill="currentColor"/>
<path d="M15.8489 2.20777C16.43 1.6039 17.0034 0.946358 17.644 0.361022C18.2111 -0.157217 19.1042 -0.104179 19.6565 0.434509C20.6404 1.39303 21.6121 2.36497 22.5724 3.34777C23.1305 3.91905 23.1369 4.81047 22.6229 5.42392C22.5564 5.50316 22.4829 5.57729 22.4093 5.65013C21.8845 6.1754 21.359 6.69939 20.8501 7.20805C19.1662 5.52425 17.4912 3.84939 15.8489 2.20777Z" fill="currentColor"/>
</svg>
