<svg width="20" height="17" viewBox="0 0 20 17" fill="none" xmlns="http://www.w3.org/2000/svg">
<path d="M15.624 10.637C16.0757 10.7886 18.4947 11.879 18.9872 12.1034C19.4797 12.3302 19.8088 12.443 19.9288 12.631C20.0512 12.819 20.0512 13.7214 19.6404 14.773C19.2321 15.8245 17.2648 16.7839 16.3207 16.9137C15.4735 17.0289 14.4005 17.0787 13.2216 16.7354C12.5059 16.5268 11.5898 16.2491 10.416 15.7869C5.47977 13.8342 2.2557 9.28223 2.00946 8.98265L2.00553 8.97784C1.74508 8.65975 0 6.52844 0 4.32152C0 2.10436 1.27202 1.01519 1.7224 0.563993C2.17405 0.112798 2.70863 0 3.03397 0C3.36441 0 3.69103 0.00363755 3.9781 0.0157664C4.28047 0.0303211 4.68619 -0.0873291 5.08426 0.790802C5.49636 1.69198 6.47876 3.90914 6.60252 4.13595C6.72628 4.36033 6.80793 4.62474 6.64462 4.92432C6.47876 5.22512 6.39711 5.41312 6.15214 5.67631C5.90718 5.93951 5.63543 6.26456 5.4147 6.46469C5.16846 6.68907 4.91202 6.93287 5.19909 7.38285C5.48615 7.83525 6.47366 9.31013 7.93706 10.5036C9.81511 12.0391 11.401 12.5146 11.8935 12.7402C12.3859 12.9646 12.673 12.9282 12.9613 12.6274C13.2471 12.3278 14.1913 11.3126 14.5179 10.8614C14.8458 10.4102 15.1737 10.4878 15.624 10.637Z" fill="currentColor"/>
</svg>
