<svg viewBox="0 0 20 18" fill="none" xmlns="http://www.w3.org/2000/svg">
<path d="M3.75278 6.58795C4.83558 6.58795 5.91839 6.58441 7.00119 6.59149C7.16661 6.59267 7.23569 6.53956 7.28537 6.38789C7.94766 4.38367 8.61419 2.38063 9.29162 0.381722C9.33767 0.244803 9.46128 0.093129 9.59035 0.0317513C9.8006 -0.0679875 9.99875 0.0754239 10.0896 0.347492C10.4114 1.30593 10.7301 2.26555 11.05 3.22457C11.3978 4.26799 11.7505 5.30964 12.0892 6.35543C12.1462 6.53189 12.2231 6.59268 12.417 6.59208C14.5372 6.585 16.6574 6.58795 18.7775 6.58677C19.0163 6.58677 19.2695 6.57084 19.3622 6.85117C19.4543 7.12914 19.2447 7.26252 19.0496 7.40003C17.3275 8.61578 15.6085 9.83507 13.8846 11.0485C13.7483 11.1447 13.7113 11.2208 13.7677 11.389C14.436 13.3678 15.0928 15.3508 15.7527 17.332C15.7618 17.3597 15.7709 17.3881 15.7818 17.4158C15.8593 17.6129 15.8557 17.7988 15.6624 17.9293C15.4806 18.052 15.3079 17.9977 15.1407 17.8779C14.5305 17.4418 13.9173 17.0098 13.3053 16.576C12.1668 15.7698 11.0252 14.9672 9.89089 14.1551C9.74607 14.0518 9.65397 14.0406 9.50127 14.1492C7.79739 15.3644 6.08744 16.5701 4.37871 17.7788C4.31751 17.8218 4.25631 17.8655 4.19511 17.9086C4.03696 18.0184 3.86972 18.0367 3.71097 17.9228C3.55161 17.8083 3.52313 17.6495 3.58433 17.4683C3.81216 16.7896 4.03757 16.1104 4.26358 15.4311C4.71136 14.0867 5.15551 12.7411 5.61178 11.399C5.66995 11.2279 5.63905 11.1441 5.4906 11.0402C3.75459 9.82091 2.02283 8.59276 0.290468 7.36639C0.22321 7.31917 0.152315 7.27255 0.0983872 7.21294C-0.0973296 6.99812 0.0135563 6.66881 0.301981 6.60743C0.389236 6.58854 0.482549 6.58972 0.572834 6.58972C1.63261 6.58795 2.69239 6.58795 3.75278 6.58795Z" fill="currentColor"/>
</svg>
