<svg width="37" height="40" viewBox="0 0 37 40" fill="none" xmlns="http://www.w3.org/2000/svg">
<path d="M8.71531 20.93H17.2903V24.85H2.0653V23.38L8.99531 14.455C10.372 12.6817 11.3286 11.305 11.8653 10.325C12.402 9.345 12.6703 8.365 12.6703 7.385C12.6703 6.31167 12.3786 5.47167 11.7953 4.865C11.212 4.235 10.442 3.92 9.48531 3.92C7.89864 3.92 6.5103 4.83 5.3203 6.65L2.0653 4.375C2.88197 3.06833 3.93197 2.03 5.2153 1.26C6.52197 0.466668 8.01531 0.0700012 9.6953 0.0700012C11.1186 0.0700012 12.3786 0.361668 13.4753 0.945C14.5953 1.52833 15.4586 2.33333 16.0653 3.36C16.672 4.36333 16.9753 5.50667 16.9753 6.79C16.9753 8.14333 16.6253 9.52 15.9253 10.92C15.2486 12.32 14.117 14.0233 12.5303 16.03L8.71531 20.93Z" fill="currentColor"/>
<path d="M33.8997 15.12H36.5947V18.935H33.8997V24.85H29.5947V18.935H18.2897V16.38L31.1347 0H33.8997V15.12ZM29.5947 7.735L23.7147 15.12H29.5947V7.735Z" fill="currentColor"/>
<path d="M5.79631 31.624H8.02831V39.85H5.79631V36.862C5.23231 37.102 4.5963 37.222 3.8883 37.222C1.7043 37.222 0.612305 36.118 0.612305 33.91V31.624H2.8443V33.82C2.8443 34.312 2.9583 34.678 3.1863 34.918C3.4263 35.146 3.8523 35.26 4.4643 35.26C4.9203 35.26 5.36431 35.194 5.79631 35.062V31.624Z" fill="currentColor"/>
<path d="M16.0002 31.624H18.1062V39.85H16.0002V38.734C15.7002 39.118 15.3102 39.424 14.8302 39.652C14.3502 39.868 13.8282 39.976 13.2642 39.976C12.6042 39.976 11.9742 39.796 11.3742 39.436C10.7862 39.076 10.3122 38.572 9.9522 37.924C9.5922 37.276 9.4122 36.544 9.4122 35.728C9.4122 34.912 9.58619 34.18 9.93419 33.532C10.2942 32.884 10.7682 32.38 11.3562 32.02C11.9442 31.66 12.5802 31.48 13.2642 31.48C13.8522 31.48 14.3862 31.594 14.8662 31.822C15.3462 32.038 15.7242 32.332 16.0002 32.704V31.624ZM15.8742 35.764V35.62C15.8742 34.984 15.6882 34.462 15.3162 34.054C14.9442 33.646 14.4522 33.442 13.8402 33.442C13.2522 33.442 12.7602 33.646 12.3642 34.054C11.9682 34.45 11.7702 35.008 11.7702 35.728C11.7702 36.436 11.9622 37.006 12.3462 37.438C12.7422 37.858 13.2402 38.068 13.8402 38.068C14.4402 38.068 14.9262 37.852 15.2982 37.42C15.6822 36.988 15.8742 36.436 15.8742 35.764Z" fill="currentColor"/>
<path d="M19.5133 35.764C19.5133 34.888 19.6993 34.126 20.0713 33.478C20.4433 32.83 20.9593 32.338 21.6193 32.002C22.2793 31.654 23.0173 31.48 23.8333 31.48C24.5173 31.48 25.1413 31.6 25.7053 31.84C26.2813 32.068 26.7373 32.368 27.0733 32.74L25.9393 34.252C25.3993 33.676 24.7573 33.388 24.0133 33.388C23.3653 33.388 22.8433 33.604 22.4473 34.036C22.0513 34.468 21.8533 35.02 21.8533 35.692C21.8533 36.388 22.0573 36.964 22.4653 37.42C22.8733 37.864 23.4133 38.086 24.0853 38.086C24.7813 38.086 25.4053 37.792 25.9573 37.204L27.2713 38.5C26.9113 38.968 26.4313 39.334 25.8313 39.598C25.2313 39.85 24.5653 39.976 23.8333 39.976C22.9693 39.976 22.2073 39.802 21.5473 39.454C20.8993 39.106 20.3953 38.614 20.0353 37.978C19.6873 37.33 19.5133 36.592 19.5133 35.764Z" fill="currentColor"/>
<path d="M33.8645 31.624H35.9705V39.85H33.8645V38.734C33.5645 39.118 33.1745 39.424 32.6945 39.652C32.2145 39.868 31.6925 39.976 31.1285 39.976C30.4685 39.976 29.8385 39.796 29.2385 39.436C28.6505 39.076 28.1765 38.572 27.8165 37.924C27.4565 37.276 27.2765 36.544 27.2765 35.728C27.2765 34.912 27.4505 34.18 27.7985 33.532C28.1585 32.884 28.6325 32.38 29.2205 32.02C29.8085 31.66 30.4445 31.48 31.1285 31.48C31.7165 31.48 32.2505 31.594 32.7305 31.822C33.2105 32.038 33.5885 32.332 33.8645 32.704V31.624ZM33.7385 35.764V35.62C33.7385 34.984 33.5525 34.462 33.1805 34.054C32.8085 33.646 32.3165 33.442 31.7045 33.442C31.1165 33.442 30.6245 33.646 30.2285 34.054C29.8325 34.45 29.6345 35.008 29.6345 35.728C29.6345 36.436 29.8265 37.006 30.2105 37.438C30.6065 37.858 31.1045 38.068 31.7045 38.068C32.3045 38.068 32.7905 37.852 33.1625 37.42C33.5465 36.988 33.7385 36.436 33.7385 35.764Z" fill="currentColor"/>
</svg>
