<svg width="27" height="22" viewBox="0 0 27 22" fill="none" xmlns="http://www.w3.org/2000/svg">
<path d="M27 0.787624C27 6.29958 27 11.8115 27 17.3235C26.8899 17.4635 26.7949 17.6193 26.667 17.7409C26.414 17.982 26.0817 17.997 25.7556 18.0052C25.5053 18.0114 25.2544 18.0066 25.0062 18.0066C25.0089 20.1727 23.2373 21.9119 21.223 21.9911C20.2992 22.0273 19.4466 21.8149 18.6958 21.2636C17.6032 20.4617 17.0241 19.3803 16.9906 18.0162C14.9892 18.0162 13.0166 18.0162 11.044 18.0162C11.0344 20.3319 9.02484 22.0157 7.04469 21.9993C6.12163 21.9918 5.2813 21.737 4.55447 21.153C3.55346 20.3496 3.02218 19.3093 3.0044 18.0032C2.77056 18.0032 2.56133 18.0073 2.3521 18.0025C1.84408 17.9902 1.33263 18.0052 0.828705 17.9499C0.195551 17.8809 -0.145642 17.2941 0.0615352 16.6916C0.213328 16.2503 0.54905 16.0311 1.01332 15.9771C1.01332 15.8562 1.01332 15.7517 1.01332 15.6472C1.01469 13.6293 1.01263 11.6114 1.01879 9.5935C1.02152 8.82979 1.30596 8.18767 1.85775 7.64871C2.81637 6.71081 3.7579 5.7531 4.71105 4.80563C5.24643 4.2735 5.90009 4.01323 6.65154 4.00504C7.33666 3.99752 8.02178 4.00367 8.7069 4.00367C8.7992 4.00367 8.89083 4.00367 8.99886 4.00367C8.99886 3.85612 8.99886 3.75161 8.99886 3.64641C8.99886 2.8219 9.00159 1.99672 8.99817 1.17221C8.99612 0.793089 9.07407 0.428995 9.41526 0.233628C9.64569 0.101789 9.93765 0.0157178 10.2029 0.0150347C15.3831 0.00273889 20.5652 0.010253 25.7474 6.48059e-06C26.3545 -0.00135972 26.7785 0.213134 27 0.787624ZM3.03654 9.98218C5.02831 9.98218 7.00504 9.98218 8.97288 9.98218C8.97288 8.65082 8.97288 7.34199 8.97288 6.01609C8.15032 6.01609 7.35238 6.00243 6.55581 6.0277C6.3965 6.03248 6.21188 6.15818 6.08949 6.2784C5.18079 7.16848 4.29533 8.08248 3.3791 8.96504C3.07551 9.25673 2.94765 9.56549 3.03654 9.98218ZM21.0042 19.978C22.0866 19.976 23.0021 19.0593 22.9946 17.9854C22.9871 16.9184 22.079 16.0119 21.0117 16.0051C19.9341 15.9983 19.0172 16.9095 19.0145 17.9909C19.0117 19.0729 19.9197 19.9801 21.0042 19.978ZM8.99134 17.9936C8.99134 16.9082 8.08126 15.9996 7.00093 16.0051C5.92197 16.0106 5.01122 16.9314 5.01737 18.01C5.02352 19.0777 5.92813 19.9739 7.00299 19.9787C8.08878 19.9828 8.99202 19.0811 8.99134 17.9936Z" fill="currentColor"/>
</svg>
