<svg width="30" height="39" viewBox="0 0 30 39" fill="none" xmlns="http://www.w3.org/2000/svg">
<path d="M0 13.7435C0.0880239 13.4681 0.168394 13.1888 0.266623 12.9173C0.876412 11.2466 2.41492 10.1462 4.15881 10.1397C5.86444 10.1345 7.57006 10.1371 9.27568 10.1397C9.83189 10.141 9.94926 10.2579 9.94926 10.8231C9.95053 16.6016 9.95053 22.3802 9.94926 28.1587C9.94926 28.7238 9.83189 28.8433 9.27696 28.8446C7.60323 28.8472 5.9295 28.8485 4.25577 28.8446C2.21973 28.8407 0.582999 27.526 0.0969539 25.5124C0.0739911 25.4201 0.0331684 25.3318 0 25.2409C0 21.4084 0 17.576 0 13.7435Z" fill="white"/>
<path d="M29.0864 19.4909C29.0864 25.1564 29.0864 30.8219 29.0864 36.4887C29.0864 38.0165 28.1423 38.9766 26.6447 38.9779C25.943 38.9792 25.235 39.0389 24.5423 38.9571C24.0422 38.8986 23.4771 38.7687 23.088 38.4712C19.812 35.9704 16.5666 33.428 13.325 30.8791C13.1566 30.7466 13.0265 30.4504 13.0265 30.2295C13.0112 23.07 13.0112 15.9105 13.0277 8.75223C13.0277 8.52228 13.1834 8.21569 13.3633 8.07408C16.578 5.54467 19.8081 3.03344 23.0344 0.51962C23.4924 0.162358 24.0014 -0.0156236 24.5869 -3.39732e-05C25.3192 0.019453 26.054 0.00126516 26.7863 0.00516256C28.0913 0.0129574 29.0825 1.01589 29.0838 2.3462C29.0876 8.06239 29.0851 13.7773 29.0864 19.4909Z" fill="white"/>
</svg>
