<svg width="48" height="48" viewBox="0 0 48 48" fill="none" xmlns="http://www.w3.org/2000/svg">
<path fill-rule="evenodd" clip-rule="evenodd" d="M43.0821 13.4897C43.3602 12.631 43.0821 12 41.7588 12H37.3828C36.2701 12 35.7571 12.5451 35.4789 13.1461C35.4789 13.1461 33.2536 18.1695 30.1011 21.4326C29.0811 22.3771 28.6175 22.6776 28.0611 22.6776C27.783 22.6776 27.3804 22.3771 27.3804 21.5185V13.4897C27.3804 12.4592 27.0575 12 26.1301 12H19.2536C18.5582 12 18.1401 12.4783 18.1401 12.9315C18.1401 13.9084 19.7162 14.1336 19.8787 16.8815V22.8494C19.8787 24.1579 19.6235 24.3951 19.0672 24.3951C17.5837 24.3951 13.9751 19.3493 11.8349 13.5755C11.4155 12.4533 10.9948 12 9.87638 12H5.50036C4.25007 12 4 12.5451 4 13.1461C4 14.2195 5.48357 19.5435 10.9077 26.5847C14.5238 31.3934 19.6186 34 24.2547 34C27.0363 34 27.3804 33.4211 27.3804 32.4238V28.7895C27.3804 27.6316 27.644 27.4005 28.5248 27.4005C29.1738 27.4005 30.2865 27.701 32.8827 30.0195C35.8498 32.7673 36.339 34 38.0079 34H42.3839C43.6342 34 44.2594 33.4211 43.8987 32.2785C43.5041 31.1398 42.0875 29.4877 40.2078 27.5293C39.1878 26.413 37.6579 25.2109 37.1942 24.6097C36.5452 23.8369 36.7307 23.4934 37.1942 22.8065C37.1942 22.8065 42.5258 15.8511 43.0821 13.4897Z" fill="currentColor"/>
</svg>
