<svg width="48" height="48" viewBox="0 0 48 48" fill="none" xmlns="http://www.w3.org/2000/svg">
    <path fill="currentColor"
          d="m24.35,6.47058c-9.88028,0 -17.92105,7.74465 -17.92453,17.2626c-0.00232,3.0437 0.82451,6.0143 2.39226,8.6307l-2.54323,8.9454l9.50284,-2.4004c2.64336,1.3827 5.58256,2.104 8.56566,2.102l0.007,0c9.8802,0 17.921,-7.7458 17.9245,-17.2638c0.0023,-4.6103 -1.8604,-8.95005 -5.2456,-12.21211c-3.3839,-3.26323 -7.8839,-5.06323 -12.6789,-5.06439zm0,31.6243l-0.0058,0c-2.6733,0 -5.2955,-0.6922 -7.5832,-1.9998l-0.54585,-0.3112l-5.63691,1.4237l1.50503,-5.2954l-0.35419,-0.5424c-1.48772,-2.269 -2.27969,-4.9234 -2.27845,-7.6366c0.00348,-7.91189 6.68787,-14.3466 14.90517,-14.3466c3.9786,0.00116 7.7191,1.49574 10.5329,4.20736c2.8138,2.71161 4.3618,6.31744 4.3595,10.15204c-0.0035,7.9118 -6.6867,14.3489 -14.8994,14.3489l0.0012,0zm8.172,-10.7478c-0.4483,-0.2148 -2.6501,-1.2588 -3.0612,-1.404c-0.4099,-0.1428 -0.7084,-0.2171 -1.0068,0.2149c-0.2973,0.432 -1.1567,1.404 -1.4168,1.6908c-0.2624,0.288 -0.5237,0.3228 -0.972,0.108c-0.4482,-0.216 -1.8917,-0.6712 -3.6012,-2.1414c-1.332,-1.1427 -2.2308,-2.5549 -2.4921,-2.988c-0.2613,-0.4309 -0.0279,-0.6643 0.1963,-0.8791c0.2009,-0.1916 0.4482,-0.5029 0.6712,-0.7549c0.223,-0.252 0.2973,-0.432 0.4483,-0.72c0.1486,-0.2868 0.0743,-0.54 -0.0384,-0.7548c-0.1126,-0.2172 -1.0068,-2.34 -1.3819,-3.2028c-0.3623,-0.84081 -0.7316,-0.72817 -1.0068,-0.7421c-0.2613,-0.01162 -0.5586,-0.0151 -0.8594,-0.0151c-0.2961,0 -0.7827,0.108 -1.1938,0.54c-0.4099,0.432 -1.56774,1.4748 -1.56774,3.5977c0,2.124 1.60494,4.1748 1.82904,4.4628c0.2241,0.2869 3.1587,4.6452 7.6517,6.5149c1.0684,0.4424 1.9022,0.7083 2.5537,0.9081c1.073,0.3286 2.0497,0.281 2.8208,0.1707c0.8593,-0.1243 2.6501,-1.0428 3.0217,-2.0497c0.3739,-1.0068 0.3739,-1.8708 0.2624,-2.0508c-0.1091,-0.18 -0.4088,-0.288 -0.857,-0.5052z"/>
</svg>