<?xml version="1.0" encoding="utf-8"?>
<!-- Generator: Adobe Illustrator 23.1.0, SVG Export Plug-In . SVG Version: 6.00 Build 0)  -->
<svg version="1.1" id="Layer_1" xmlns="http://www.w3.org/2000/svg" xmlns:xlink="http://www.w3.org/1999/xlink" x="0px" y="0px"
	 viewBox="0 0 1381.5 632" style="enable-background:new 0 0 1381.5 632;" xml:space="preserve">
<style type="text/css">
	.st0{fill-rule:evenodd;clip-rule:evenodd;fill:#E84240;}
	.st1{fill-rule:evenodd;clip-rule:evenodd;fill:#F7A81C;}
	.st2{fill-rule:evenodd;clip-rule:evenodd;fill:#11B2AD;}
	.st3{fill:#3369FF;}
</style>
<path d="M665.1,206.5c-1.4-10.4-1.1-19.5,1-27.4c2.1-7.9,5.7-14.2,10.7-18.9c5-4.6,11.1-7.4,18.2-8.4c7.1-1,13.7,0.2,19.7,3.3
	c6,3.1,11.1,8.1,15.1,15.1c4.1,7,6.9,15.7,8.3,26.1c1.4,10.4,1,19.6-1.1,27.5c-2,7.8-5.6,14.1-10.6,18.7c-5,4.6-11.1,7.4-18.2,8.4
	c-7.1,1-13.7-0.1-19.7-3.2c-6.1-3.2-11.1-8.2-15.3-15.3C669.2,225.6,666.5,216.9,665.1,206.5z M715.2,199.5
	c-1.3-9.7-3.6-16.8-6.8-21.4c-3.2-4.6-6.8-6.6-10.8-6.1c-4.1,0.5-7,3.4-9,8.7c-1.8,5.3-2.1,12.8-0.8,22.7c1.3,9.7,3.6,16.8,6.8,21.4
	c3.2,4.6,6.8,6.6,10.8,6.1c4-0.5,6.9-3.4,8.8-8.7C716.2,216.8,716.5,209.3,715.2,199.5z"/>
<path d="M594.9,181.1l9.1-1.2l2.6,20.2l-9.1,1.2l2.5,19.9l-22.8,2.9l-2.5-19.9l-43.9,5.6l-2-15.5l41.2-69.9l17.4-2.2L594.9,181.1z
	 M569.2,161.7l-15,24.6L572,184L569.2,161.7z"/>
<path d="M857.7,201.7l8.9,2.5l-5.5,19.6l-8.9-2.5l-5.4,19.4l-22.2-6.2l5.4-19.4l-42.6-12l4.2-15l65.2-48.3l16.9,4.8L857.7,201.7z
	 M841.7,173.8l-23.4,16.8l17.3,4.9L841.7,173.8z"/>
<path class="st0" d="M30.9,184.7l85.1,87l85.1,87l-100.6,33.7L0,426l15.5-120.7L30.9,184.7z"/>
<path class="st1" d="M336,108.1c26.8,13.5,59.1,3.2,72.3-23c13.2-26.2,2.2-58.2-24.6-71.7L357.1,0l-47.6,94.6L336,108.1L336,108.1z"
	/>
<path class="st2" d="M948.9,610.7c25-6.3,44.7-22.9,55.7-44.2l-28.1-112.1c-19.8-13.6-44.9-19-70-12.7
	c-46.4,11.6-74.6,58.8-62.9,105.5S902.4,622.3,948.9,610.7z"/>
<path class="st3" d="M1380.6,95.9L1242.8,66l-37.3,172l137.8,29.9L1380.6,95.9z"/>
</svg>
