<svg width="109" height="90" viewBox="0 0 109 90" fill="none" xmlns="http://www.w3.org/2000/svg">
<path fill-rule="evenodd" clip-rule="evenodd" d="M16.3587 0.0187649L32.736 33.9938H0L8.19181 17.0031L16.3587 0.0187649Z" fill="#EA4335"/>
<path fill-rule="evenodd" clip-rule="evenodd" d="M64.0559 0C69.1157 0 73.639 2.21209 76.7522 5.72395V28.2761C73.639 31.7817 69.1095 34 64.0559 34C54.6849 34 47.0796 26.4014 47.0796 17.0156C47.0796 7.62985 54.6849 0 64.0559 0Z" fill="#10B390"/>
<path fill-rule="evenodd" clip-rule="evenodd" d="M34.7887 18.7966C39.9733 18.7966 44.1597 14.5973 44.1597 9.41079C44.1597 4.22424 39.9733 0.0187649 34.7887 0.0187649H29.6415V18.7966H34.7887Z" fill="#F7A71A"/>
<path d="M108.609 0H81.55V33.9938H108.609V0Z" fill="#3369FF"/>
<path d="M6.63947 43H8.91318L15.5714 61.2778H13.636L12.2141 57.3678H3.37612L1.95426 61.2778H0L6.63947 43ZM4.02753 55.5382H11.5251L7.77945 45.2557L4.02753 55.5382Z" fill="white"/>
<path d="M27.6826 61.2778V43H33.6463C34.5869 43 35.4432 43.2318 36.1909 43.7081C36.9447 44.1905 37.5417 44.8297 37.9879 45.6254C38.4341 46.4212 38.6572 47.3298 38.6572 48.3449C38.6572 49.2346 38.4884 50.0492 38.1266 50.776C37.7648 51.5029 37.3065 52.1107 36.6914 52.5869C36.0945 53.0694 35.395 53.3889 34.6412 53.5456L38.9286 61.2715H36.8964L32.6573 53.6897H29.4433V61.2715H27.6826V61.2778ZM29.4433 51.8663H33.5136C34.1287 51.8663 34.6955 51.7034 35.208 51.3838C35.7206 51.0643 36.1306 50.6382 36.4382 50.1056C36.7457 49.5542 36.9025 48.9339 36.9025 48.2571C36.9025 47.5616 36.7457 46.9413 36.4382 46.3899C36.1306 45.8573 35.7206 45.4312 35.208 45.1116C34.6955 44.7921 34.1287 44.6292 33.5136 44.6292H29.4433V51.8663Z" fill="white"/>
<path d="M59.3102 62.1482C58.0488 62.1482 56.8703 61.895 55.7554 61.4139C54.6532 60.9138 53.6976 60.2302 52.8503 59.3503C52.0221 58.4704 51.3723 57.464 50.8818 56.2993C50.4103 55.1345 50.1746 53.8939 50.1746 52.5836C50.1746 51.2543 50.4103 50.0199 50.8818 48.8489C51.3723 47.7032 52.0221 46.6777 52.8503 45.7978C53.6976 44.918 54.6532 44.2343 55.7554 43.7343C56.8766 43.2469 58.0488 43 59.3102 43C60.8074 43 62.2026 43.3418 63.464 44.0381C64.7254 44.7407 65.7766 45.6523 66.6047 46.8043L64.9611 47.7032C64.3113 46.8233 63.4831 46.127 62.4701 45.6206C61.4763 45.1016 60.4124 44.8483 59.3102 44.8483C58.2782 44.8483 57.3417 45.0446 56.4562 45.456C55.5706 45.8675 54.8125 46.4245 54.1436 47.1398C53.4746 47.8551 52.9522 48.6653 52.5891 49.5958C52.2069 50.5263 52.0285 51.5138 52.0285 52.5772C52.0285 53.6407 52.2069 54.6408 52.5891 55.5713C52.9714 56.5018 53.4938 57.3121 54.1627 58.0273C54.8316 58.7426 55.6088 59.2997 56.4944 59.6984C57.3608 60.0909 58.2973 60.3061 59.3102 60.3061C60.4634 60.3061 61.5336 60.0339 62.5083 59.5149C63.5022 58.9768 64.3113 58.2932 64.9675 57.4513L66.6111 58.3502C65.7829 59.4959 64.7317 60.4137 63.4703 61.1164C62.2026 61.8063 60.8074 62.1482 59.3102 62.1482Z" fill="white"/>
<path d="M89.9069 43H91.6984V61.2778H89.9069V52.3989H80.5137V61.2778H78.7222V43H80.5137V50.5693H89.9069V43Z" fill="white"/>
<path d="M8.65081 71.7222H6.92065V90H8.65081V71.7222Z" fill="white"/>
<path d="M25.9524 90V71.7222H31.8082C33.0292 71.7222 34.1833 71.9543 35.2524 72.431C36.3215 72.8952 37.2692 73.5538 38.0771 74.388C38.885 75.241 39.5228 76.2007 39.9723 77.3047C40.4401 78.4086 40.6587 79.6004 40.6587 80.8611C40.6587 82.1219 40.434 83.2948 39.9723 84.3987C39.5228 85.5027 38.885 86.4812 38.0771 87.3154C37.2692 88.1496 36.3215 88.8082 35.2524 89.2912C34.1833 89.7742 33.0292 90 31.8082 90H25.9524ZM27.7261 88.1685H31.8082C32.7923 88.1685 33.7034 87.9928 34.566 87.5977C35.4286 87.2213 36.1697 86.707 36.8196 86.0358C37.4757 85.3584 37.9738 84.5806 38.3504 83.7088C38.7149 82.8181 38.885 81.8772 38.885 80.8611C38.885 79.845 38.7149 78.9041 38.3504 78.0134C37.9738 77.1228 37.4696 76.3575 36.8196 75.6864C36.1636 75.009 35.4104 74.4946 34.5478 74.1057C33.7034 73.7294 32.7923 73.5349 31.8082 73.5349H27.7261V88.1685Z" fill="white"/>
<path d="M52.7698 90V71.7222H64.0159V73.5349H54.6199V79.293H62.4002V81.1246H54.6199V88.1685H64.0159V90H52.7698Z" fill="white"/>
<path d="M83.6243 71.7222H85.8998L92.5635 90H90.6265L89.2035 86.086H80.3521L78.9291 90H76.9921L83.6243 71.7222ZM81.0291 84.2545H88.5076L84.7589 73.9615L81.0291 84.2545Z" fill="white"/>
<path d="M109 87.3465C109 87.7311 108.938 88.0708 108.791 88.3848C108.662 88.7117 108.47 89.0001 108.234 89.2373C107.997 89.4744 107.721 89.6539 107.405 89.7821C107.101 89.9295 106.768 90 106.396 90C106.024 90 105.675 89.9295 105.359 89.7821C105.055 89.6347 104.784 89.436 104.542 89.1796C104.317 88.9232 104.142 88.6348 104.012 88.3272C103.883 88.0003 103.821 87.6734 103.821 87.3273C103.821 86.9427 103.9 86.5646 104.074 86.1992C104.232 85.8339 104.491 85.507 104.841 85.2378L105.258 86.0711C105.066 86.2377 104.92 86.4364 104.824 86.6543C104.728 86.8915 104.677 87.1094 104.677 87.3465C104.677 87.5644 104.728 87.7823 104.807 87.981C104.886 88.199 105.016 88.3784 105.173 88.5451C105.32 88.6925 105.511 88.8207 105.714 88.9104C105.917 89.0001 106.16 89.0578 106.402 89.0578C106.644 89.0578 106.864 89.0194 107.073 88.9296C107.281 88.8399 107.473 88.7117 107.614 88.5451C107.771 88.3784 107.901 88.199 107.98 88.0003C108.076 87.8016 108.126 87.5644 108.126 87.3273C108.126 87.1799 108.093 87.0196 108.048 86.8722C107.997 86.7056 107.935 86.5646 107.856 86.4364C107.76 86.3082 107.647 86.18 107.518 86.0711C107.405 85.9621 107.264 85.8724 107.101 85.7954V86.7761H106.334V84.7058C106.701 84.6866 107.039 84.7635 107.354 84.8853C107.676 85.0135 107.963 85.2122 108.2 85.4493C108.453 85.6865 108.645 85.9749 108.775 86.3018C108.938 86.6223 109 86.9876 109 87.3465ZM103.905 78.4823V76.4121C103.905 76.1237 103.967 75.8673 104.114 75.6302C104.243 75.393 104.435 75.1943 104.655 75.0661C104.88 74.9187 105.134 74.8482 105.404 74.8482C105.647 74.8482 105.85 74.9059 106.03 74.9956C106.222 75.0854 106.396 75.1943 106.526 75.361C106.672 75.5276 106.768 75.7071 106.847 75.9058L108.91 74.6175V75.7071L106.932 76.9441V77.5466H108.91V78.4823H103.905ZM106.047 77.5402V76.5211C106.047 76.3929 106.013 76.2647 105.951 76.1557C105.9 76.0468 105.805 75.9571 105.709 75.8994C105.596 75.8289 105.483 75.7904 105.359 75.7904C105.23 75.7904 105.106 75.8289 105.01 75.8994C104.897 75.9571 104.818 76.0468 104.756 76.1557C104.694 76.2647 104.661 76.3929 104.661 76.5211V77.5402H106.047ZM109 66.0353C109 66.4007 108.938 66.7275 108.808 67.0544C108.662 67.3813 108.47 67.6569 108.25 67.9069C108.008 68.144 107.721 68.3235 107.422 68.4709C107.101 68.6183 106.768 68.6696 106.413 68.6696C106.047 68.6696 105.709 68.6119 105.404 68.4709C105.083 68.3235 104.813 68.144 104.576 67.9069C104.334 67.6505 104.142 67.3813 104.018 67.0544C103.888 66.7275 103.81 66.4007 103.81 66.0353C103.81 65.6508 103.888 65.3239 104.018 64.997C104.148 64.6701 104.339 64.3945 104.576 64.1445C104.818 63.9074 105.089 63.7279 105.404 63.5805C105.709 63.4523 106.041 63.3818 106.413 63.3818C106.763 63.3818 107.101 63.4523 107.422 63.5805C107.726 63.7279 108.014 63.9074 108.25 64.1445C108.476 64.4009 108.667 64.6701 108.808 64.997C108.938 65.3303 109 65.6572 109 66.0353ZM108.138 66.0353C108.138 65.7982 108.087 65.561 107.991 65.3623C107.895 65.1636 107.783 64.9778 107.625 64.8175C107.467 64.6573 107.275 64.5291 107.067 64.4522C106.858 64.3625 106.65 64.3048 106.413 64.3048C106.171 64.3048 105.951 64.3625 105.743 64.4522C105.534 64.5419 105.359 64.6509 105.202 64.8175C105.044 64.9842 104.914 65.1636 104.818 65.3623C104.739 65.561 104.689 65.7982 104.689 66.0353C104.689 66.2725 104.739 66.4904 104.818 66.6891C104.914 66.907 105.044 67.0865 105.202 67.2339C105.359 67.4005 105.54 67.5223 105.743 67.6184C105.951 67.6889 106.176 67.7466 106.413 67.7466C106.656 67.7466 106.875 67.6889 107.084 67.5992C107.292 67.5287 107.467 67.4005 107.625 67.2339C107.783 67.0672 107.912 66.8878 107.991 66.6891C108.093 66.4904 108.138 66.2725 108.138 66.0353ZM109 54.9919C109 55.4278 108.904 55.7931 108.713 56.12C108.521 56.4469 108.25 56.7033 107.912 56.8827C107.591 57.0494 107.225 57.1391 106.825 57.1391H103.9V56.2097H106.825C107.067 56.2097 107.27 56.1521 107.478 56.0623C107.67 55.9726 107.828 55.8252 107.94 55.6457C108.07 55.4662 108.132 55.2483 108.132 54.9919C108.132 54.7163 108.07 54.4984 107.94 54.319C107.828 54.1523 107.67 54.0113 107.478 53.9216C107.27 53.8319 107.061 53.7742 106.825 53.7742H103.9V52.8448H106.825C107.129 52.8448 107.399 52.9025 107.67 52.9922C107.924 53.1012 108.166 53.2486 108.358 53.4281C108.566 53.6268 108.724 53.8447 108.837 54.1203C108.955 54.3702 109 54.6651 109 54.9919ZM108.904 46.4867H103.905V44.5639C103.905 44.2755 103.967 43.9999 104.114 43.7627C104.243 43.5256 104.435 43.3461 104.655 43.1987C104.897 43.0705 105.134 43 105.404 43C105.692 43 105.945 43.0705 106.171 43.2179C106.396 43.3461 106.588 43.5448 106.712 43.7819C106.858 44.0191 106.92 44.2755 106.92 44.5639V45.5445H108.899V46.4867H108.904ZM106.047 45.5445V44.6536C106.047 44.5254 106.013 44.3972 105.951 44.2883C105.9 44.1793 105.805 44.0896 105.709 44.0319C105.596 43.9614 105.483 43.923 105.359 43.923C105.23 43.923 105.106 43.9614 105.01 44.0319C104.897 44.0896 104.818 44.1793 104.756 44.2883C104.694 44.3972 104.661 44.5254 104.661 44.6536V45.5445H106.047Z" fill="white"/>
</svg>
