<svg width="228" height="40" viewBox="0 0 228 40" fill="none" xmlns="http://www.w3.org/2000/svg">
<path fill-rule="evenodd" clip-rule="evenodd" d="M19.127 0.0219405L38.276 39.7466H0L9.57811 19.8806L19.127 0.0219405Z" fill="#EA4335"/>
<path fill-rule="evenodd" clip-rule="evenodd" d="M74.8961 0C80.8122 0 86.101 2.58645 89.7411 6.69262V33.0612C86.101 37.1601 80.8049 39.7538 74.8961 39.7538C63.9393 39.7538 55.0469 30.8693 55.0469 19.8952C55.0469 8.92105 63.9393 0 74.8961 0Z" fill="#10B390"/>
<path fill-rule="evenodd" clip-rule="evenodd" d="M40.676 21.9775C46.738 21.9775 51.6328 17.0677 51.6328 11.0034C51.6328 4.93911 46.738 0.0219405 40.676 0.0219405H34.6578V21.9775H40.676Z" fill="#F7A71A"/>
<path d="M126.988 0H95.3508V39.7465H126.988V0Z" fill="#3369FF"/>
<path d="M143.453 1.16895H145.331L150.83 16.1741H149.232L148.057 12.9642H140.757L139.583 16.1741H137.969L143.453 1.16895ZM141.295 11.4621H147.488L144.394 3.0208L141.295 11.4621Z" fill="white"/>
<path d="M160.834 16.1741V1.16895H165.76C166.537 1.16895 167.244 1.35928 167.861 1.75022C168.484 2.14631 168.977 2.671 169.346 3.32429C169.714 3.97758 169.898 4.72347 169.898 5.5568C169.898 6.28725 169.759 6.95598 169.46 7.55268C169.161 8.14939 168.783 8.64836 168.275 9.03931C167.782 9.4354 167.204 9.69774 166.581 9.82635L170.123 16.1689H168.444L164.943 9.94466H162.288V16.1689H160.834V16.1741ZM162.288 8.44774H165.65C166.158 8.44774 166.626 8.314 167.05 8.05165C167.473 7.78931 167.812 7.43951 168.066 7.00227C168.32 6.5496 168.449 6.04034 168.449 5.48478C168.449 4.91379 168.32 4.40454 168.066 3.95187C167.812 3.51462 167.473 3.16483 167.05 2.90248C166.626 2.64014 166.158 2.5064 165.65 2.5064H162.288V8.44774Z" fill="white"/>
<path d="M186.957 16.8886C185.915 16.8886 184.942 16.6807 184.021 16.2858C183.111 15.8753 182.321 15.314 181.622 14.5917C180.937 13.8694 180.401 13.0431 179.996 12.087C179.606 11.1308 179.411 10.1123 179.411 9.03657C179.411 7.94529 179.606 6.93195 179.996 5.97058C180.401 5.03 180.937 4.18816 181.622 3.46583C182.321 2.74351 183.111 2.18228 184.021 1.77175C184.947 1.37161 185.915 1.16895 186.957 1.16895C188.194 1.16895 189.346 1.44956 190.388 2.02118C191.43 2.598 192.298 3.34631 192.982 4.29209L191.625 5.03C191.088 4.30768 190.404 3.73606 189.567 3.32033C188.746 2.89421 187.868 2.68634 186.957 2.68634C186.105 2.68634 185.331 2.84744 184.6 3.18522C183.868 3.52299 183.242 3.98029 182.69 4.56751C182.137 5.15472 181.706 5.81989 181.406 6.58378C181.09 7.34768 180.943 8.15835 180.943 9.03137C180.943 9.9044 181.09 10.7255 181.406 11.4894C181.722 12.2533 182.153 12.9184 182.706 13.5056C183.258 14.0928 183.9 14.5501 184.631 14.8775C185.347 15.1997 186.121 15.3764 186.957 15.3764C187.91 15.3764 188.794 15.1529 189.599 14.7268C190.42 14.2851 191.088 13.7239 191.63 13.0327L192.988 13.7707C192.303 14.7112 191.435 15.4647 190.393 16.0416C189.346 16.608 188.194 16.8886 186.957 16.8886Z" fill="white"/>
<path d="M212.229 1.16895H213.709V16.1741H212.229V8.88498H204.471V16.1741H202.991V1.16895H204.471V7.38293H212.229V1.16895Z" fill="white"/>
<path d="M145.114 24.7484H143.685V39.7536H145.114V24.7484Z" fill="white"/>
<path d="M159.405 39.7536V24.7484H164.241C165.25 24.7484 166.203 24.939 167.086 25.3303C167.969 25.7114 168.752 26.252 169.419 26.9369C170.087 27.6372 170.613 28.425 170.985 29.3313C171.371 30.2376 171.552 31.216 171.552 32.251C171.552 33.286 171.366 34.2489 170.985 35.1552C170.613 36.0615 170.087 36.8648 169.419 37.5497C168.752 38.2345 167.969 38.7752 167.086 39.1717C166.203 39.5682 165.25 39.7536 164.241 39.7536H159.405ZM160.87 38.25H164.241C165.054 38.25 165.807 38.1058 166.519 37.7814C167.232 37.4724 167.844 37.0502 168.381 36.4992C168.923 35.9431 169.334 35.3046 169.645 34.5888C169.946 33.8576 170.087 33.0852 170.087 32.251C170.087 31.4168 169.946 30.6444 169.645 29.9132C169.334 29.182 168.918 28.5538 168.381 28.0028C167.839 27.4467 167.217 27.0244 166.504 26.7052C165.807 26.3962 165.054 26.2366 164.241 26.2366H160.87V38.25Z" fill="white"/>
<path d="M181.555 39.7536V24.7484H190.844V26.2366H183.083V30.9637H189.509V32.4673H183.083V38.25H190.844V39.7536H181.555Z" fill="white"/>
<path d="M207.04 24.7484H208.919L214.423 39.7536H212.824L211.648 36.5404H204.337L203.162 39.7536H201.562L207.04 24.7484ZM204.896 35.0368H211.073L207.977 26.5868L204.896 35.0368Z" fill="white"/>
<path d="M228 37.5752C228 37.8909 227.948 38.1698 227.827 38.4276C227.72 38.6959 227.562 38.9327 227.366 39.1274C227.171 39.3221 226.943 39.4694 226.682 39.5747C226.431 39.6957 226.156 39.7536 225.849 39.7536C225.542 39.7536 225.253 39.6957 224.992 39.5747C224.741 39.4536 224.518 39.2905 224.317 39.08C224.131 38.8696 223.987 38.6328 223.88 38.3802C223.773 38.1119 223.722 37.8435 223.722 37.5594C223.722 37.2437 223.787 36.9332 223.931 36.6333C224.061 36.3334 224.276 36.0651 224.564 35.8441L224.909 36.5281C224.75 36.6649 224.629 36.828 224.55 37.0069C224.471 37.2016 224.429 37.3805 224.429 37.5752C224.429 37.7541 224.471 37.933 224.536 38.0961C224.601 38.275 224.708 38.4223 224.839 38.5591C224.96 38.6802 225.118 38.7854 225.286 38.8591C225.453 38.9327 225.653 38.9801 225.854 38.9801C226.054 38.9801 226.235 38.9485 226.408 38.8748C226.58 38.8012 226.738 38.6959 226.854 38.5591C226.985 38.4223 227.092 38.275 227.157 38.1119C227.236 37.9488 227.278 37.7541 227.278 37.5594C227.278 37.4384 227.25 37.3068 227.213 37.1858C227.171 37.049 227.12 36.9332 227.055 36.828C226.975 36.7228 226.882 36.6175 226.775 36.5281C226.682 36.4386 226.566 36.365 226.431 36.3018V37.1069H225.798V35.4073C226.1 35.3915 226.38 35.4547 226.64 35.5547C226.906 35.6599 227.143 35.823 227.339 36.0177C227.548 36.2124 227.706 36.4492 227.813 36.7175C227.948 36.9806 228 37.2805 228 37.5752ZM223.791 30.2982V28.5986C223.791 28.3618 223.843 28.1513 223.964 27.9567C224.071 27.762 224.229 27.5989 224.411 27.4936C224.597 27.3726 224.806 27.3147 225.03 27.3147C225.23 27.3147 225.397 27.3621 225.546 27.4357C225.705 27.5094 225.849 27.5989 225.956 27.7357C226.077 27.8725 226.156 28.0198 226.221 28.1829L227.925 27.1253V28.0198L226.291 29.0353V29.5299H227.925V30.2982H223.791ZM225.56 29.5247V28.688C225.56 28.5828 225.532 28.4776 225.481 28.3881C225.439 28.2987 225.36 28.225 225.281 28.1777C225.188 28.1198 225.095 28.0882 224.992 28.0882C224.885 28.0882 224.783 28.1198 224.704 28.1777C224.611 28.225 224.546 28.2987 224.494 28.3881C224.443 28.4776 224.415 28.5828 224.415 28.688V29.5247H225.56ZM228 20.0798C228 20.3797 227.948 20.648 227.841 20.9164C227.72 21.1847 227.562 21.411 227.38 21.6162C227.18 21.8109 226.943 21.9582 226.696 22.0793C226.431 22.2003 226.156 22.2424 225.863 22.2424C225.56 22.2424 225.281 22.195 225.03 22.0793C224.764 21.9582 224.541 21.8109 224.345 21.6162C224.145 21.4057 223.987 21.1847 223.885 20.9164C223.777 20.648 223.712 20.3797 223.712 20.0798C223.712 19.7641 223.777 19.4957 223.885 19.2274C223.992 18.959 224.15 18.7328 224.345 18.5275C224.546 18.3329 224.769 18.1855 225.03 18.0645C225.281 17.9593 225.556 17.9014 225.863 17.9014C226.151 17.9014 226.431 17.9593 226.696 18.0645C226.948 18.1855 227.185 18.3329 227.38 18.5275C227.567 18.738 227.725 18.959 227.841 19.2274C227.948 19.501 228 19.7693 228 20.0798ZM227.287 20.0798C227.287 19.8851 227.245 19.6904 227.166 19.5273C227.087 19.3642 226.994 19.2116 226.864 19.08C226.733 18.9485 226.575 18.8433 226.403 18.7801C226.231 18.7064 226.058 18.6591 225.863 18.6591C225.663 18.6591 225.481 18.7064 225.309 18.7801C225.137 18.8538 224.992 18.9432 224.862 19.08C224.732 19.2168 224.625 19.3642 224.546 19.5273C224.48 19.6904 224.438 19.8851 224.438 20.0798C224.438 20.2745 224.48 20.4534 224.546 20.6165C224.625 20.7954 224.732 20.9427 224.862 21.0637C224.992 21.2005 225.141 21.3005 225.309 21.3794C225.481 21.4373 225.667 21.4847 225.863 21.4847C226.063 21.4847 226.245 21.4373 226.417 21.3636C226.589 21.3058 226.733 21.2005 226.864 21.0637C226.994 20.9269 227.101 20.7796 227.166 20.6165C227.25 20.4534 227.287 20.2745 227.287 20.0798ZM228 11.0137C228 11.3715 227.92 11.6715 227.762 11.9398C227.604 12.2082 227.38 12.4186 227.101 12.566C226.836 12.7028 226.533 12.7764 226.203 12.7764H223.787V12.0135H226.203C226.403 12.0135 226.57 11.9661 226.743 11.8925C226.901 11.8188 227.031 11.6978 227.124 11.5504C227.231 11.4031 227.283 11.2242 227.283 11.0137C227.283 10.7875 227.231 10.6086 227.124 10.4612C227.031 10.3244 226.901 10.2087 226.743 10.135C226.57 10.0613 226.398 10.014 226.203 10.014H223.787V9.25104H226.203C226.454 9.25104 226.677 9.29839 226.901 9.37206C227.11 9.46151 227.311 9.58253 227.469 9.72986C227.641 9.89297 227.771 10.0719 227.865 10.2981C227.962 10.5033 228 10.7454 228 11.0137ZM227.92 4.03135H223.791V2.45282C223.791 2.21604 223.843 1.98978 223.964 1.7951C224.071 1.60041 224.229 1.45309 224.411 1.33206C224.611 1.22683 224.806 1.16895 225.03 1.16895C225.267 1.16895 225.477 1.22683 225.663 1.34785C225.849 1.45308 226.007 1.6162 226.11 1.81088C226.231 2.00557 226.282 2.21604 226.282 2.45282V3.25787H227.916V4.03135H227.92ZM225.56 3.25787V2.52648C225.56 2.42125 225.532 2.31601 225.481 2.22656C225.439 2.13711 225.36 2.06345 225.281 2.01609C225.188 1.95821 225.095 1.92664 224.992 1.92664C224.885 1.92664 224.783 1.95821 224.704 2.01609C224.611 2.06345 224.546 2.13711 224.494 2.22656C224.443 2.31601 224.415 2.42125 224.415 2.52648V3.25787H225.56Z" fill="white"/>
</svg>
