<svg width="109" height="34" viewBox="0 0 109 34" fill="none" xmlns="http://www.w3.org/2000/svg">
<path fill-rule="evenodd" clip-rule="evenodd" d="M16.3587 0.0187649L32.736 33.9938H0L8.19181 17.0031L16.3587 0.0187649Z" fill="#C4C4C4"/>
<path fill-rule="evenodd" clip-rule="evenodd" d="M64.0559 0C69.1157 0 73.639 2.21209 76.7522 5.72395V28.2761C73.639 31.7817 69.1095 34 64.0559 34C54.6849 34 47.0796 26.4014 47.0796 17.0156C47.0796 7.62985 54.6849 0 64.0559 0Z" fill="#C4C4C4"/>
<path fill-rule="evenodd" clip-rule="evenodd" d="M34.7887 18.7966C39.9733 18.7966 44.1597 14.5973 44.1597 9.41079C44.1597 4.22424 39.9733 0.0187649 34.7887 0.0187649H29.6415V18.7966H34.7887Z" fill="#C4C4C4"/>
<path d="M108.609 0H81.55V33.9938H108.609V0Z" fill="#C4C4C4"/>
</svg>
