<?xml version="1.0" encoding="utf-8"?>
<!-- Generator: Adobe Illustrator 23.1.0, SVG Export Plug-In . SVG Version: 6.00 Build 0)  -->
<svg version="1.1" id="Layer_1" xmlns="http://www.w3.org/2000/svg" xmlns:xlink="http://www.w3.org/1999/xlink" x="0px" y="0px"
	 viewBox="0 0 392.1 289" style="enable-background:new 0 0 392.1 289;" xml:space="preserve">
<style type="text/css">
	.st0{fill-rule:evenodd;clip-rule:evenodd;fill:#E84240;}
	.st1{fill-rule:evenodd;clip-rule:evenodd;fill:#F7A81C;}
	.st2{fill-rule:evenodd;clip-rule:evenodd;fill:#11B2AD;}
	.st3{fill:#3369FF;}
</style>
<path d="M184.5,109.3c-0.6-4.7-0.5-8.7,0.4-12.2c1-3.6,2.5-6.4,4.8-8.5c2.2-2.1,5-3.3,8.1-3.8c3.2-0.4,6.1,0.1,8.8,1.5
	c2.7,1.4,5,3.6,6.8,6.8c1.8,3.1,3.1,7,3.7,11.7c0.6,4.7,0.5,8.8-0.5,12.3c-0.9,3.5-2.5,6.3-4.7,8.4c-2.2,2.1-5,3.3-8.1,3.8
	c-3.2,0.4-6.1,0-8.8-1.4c-2.7-1.4-5-3.7-6.8-6.8C186.3,117.8,185.1,113.9,184.5,109.3z M206.9,106.1c-0.6-4.3-1.6-7.5-3-9.6
	c-1.4-2-3.1-3-4.8-2.7c-1.8,0.2-3.2,1.5-4,3.9c-0.8,2.4-0.9,5.7-0.3,10.1c0.6,4.3,1.6,7.5,3,9.6c1.4,2,3.1,3,4.8,2.7
	c1.8-0.2,3.1-1.5,4-3.9C207.4,113.9,207.5,110.5,206.9,106.1z"/>
<path d="M153.1,97.9l4.1-0.5l1.2,9.1l-4.1,0.5l1.1,8.9l-10.2,1.3l-1.1-8.9l-19.6,2.5l-0.9-6.9l18.4-31.3l7.8-1L153.1,97.9z
	 M141.6,89.2l-6.7,11l8-1L141.6,89.2z"/>
<path d="M270.7,107.1l4,1.1l-2.5,8.8l-4-1.1l-2.4,8.7l-9.9-2.8l2.4-8.7l-19.1-5.4l1.9-6.7l29.2-21.6l7.6,2.1L270.7,107.1z
	 M263.5,94.6l-10.5,7.5l7.8,2.2L263.5,94.6z"/>
<path class="st0" d="M10.3,129.2l28.3,28.9L66.8,187l-33.4,11.2L0,209.4l5.2-40.1L10.3,129.2z"/>
<path class="st1" d="M75.7,35.9c8.9,4.5,19.6,1.1,24-7.6s0.7-19.4-8.2-23.8L82.7,0L66.9,31.5L75.7,35.9L75.7,35.9z"/>
<path class="st2" d="M367.9,281.4c8.3-2.1,14.9-7.6,18.5-14.7l-9.3-37.2c-6.6-4.5-14.9-6.3-23.3-4.2c-15.4,3.9-24.8,19.6-20.9,35.1
	C336.8,275.8,352.5,285.3,367.9,281.4z"/>
<path class="st3" d="M392.1,31.9L346.3,22l-12.4,57.2l45.8,9.9L392.1,31.9z"/>
</svg>
