<svg width="360" height="289" viewBox="0 0 360 289" fill="none" xmlns="http://www.w3.org/2000/svg">
<path d="M163.606 109.256C162.982 104.598 163.129 100.515 164.045 97.0064C164.996 93.4503 166.593 90.6333 168.835 88.5554C171.076 86.4774 173.786 85.2257 176.962 84.8002C180.139 84.3747 183.083 84.8695 185.792 86.2844C188.496 87.6578 190.751 89.9165 192.558 93.0608C194.407 96.1995 195.643 100.097 196.266 104.755C196.89 109.412 196.726 113.519 195.774 117.075C194.858 120.583 193.279 123.377 191.038 125.455C188.796 127.533 186.087 128.785 182.91 129.21C179.733 129.635 176.793 129.162 174.089 127.788C171.379 126.373 169.101 124.096 167.252 120.958C165.445 117.814 164.23 113.913 163.606 109.256ZM186.055 106.122C185.476 101.798 184.461 98.6108 183.01 96.5617C181.56 94.5125 179.948 93.6067 178.174 93.8443C176.358 94.0875 175.021 95.3883 174.16 97.7469C173.342 100.1 173.227 103.48 173.818 107.888C174.397 112.213 175.412 115.399 176.862 117.449C178.312 119.498 179.925 120.403 181.699 120.166C183.473 119.928 184.79 118.63 185.65 116.272C186.505 113.871 186.639 110.488 186.055 106.122Z" fill="black"/>
<path d="M132.193 97.8645L136.281 97.3432L137.435 106.395L133.347 106.916L134.486 115.843L124.266 117.146L123.127 108.219L103.493 110.723L102.609 103.794L121.03 72.5164L128.834 71.5212L132.193 97.8645ZM120.7 89.1797L113.983 100.187L121.973 99.1677L120.7 89.1797Z" fill="black"/>
<path d="M249.848 107.095L253.816 108.21L251.347 116.995L247.38 115.88L244.945 124.543L235.027 121.756L237.461 113.093L218.406 107.738L220.295 101.013L249.458 79.4007L257.032 81.529L249.848 107.095ZM242.654 94.6148L232.175 102.129L239.93 104.308L242.654 94.6148Z" fill="black"/>
<path fill-rule="evenodd" clip-rule="evenodd" d="M-10.6112 129.196L17.6642 158.113L45.9395 187.029L12.5058 198.225L-20.8831 209.407L-15.7247 169.294L-10.6112 129.196Z" fill="#E84240"/>
<path fill-rule="evenodd" clip-rule="evenodd" d="M54.8375 35.9232C63.7318 40.3958 74.4807 36.993 78.8602 28.2836C83.2397 19.5742 79.5801 8.92609 70.6668 4.44406L61.8291 0L46.009 31.4607L54.8467 35.9048L54.8375 35.9232Z" fill="#F7A81C"/>
<path fill-rule="evenodd" clip-rule="evenodd" d="M347.015 281.395C355.336 279.31 361.872 273.788 365.537 266.704L356.205 229.457C349.633 224.938 341.265 223.149 332.945 225.234C317.516 229.099 308.144 244.784 312.031 260.298C315.917 275.811 331.587 285.26 347.015 281.395Z" fill="#11B2AD"/>
<path d="M371.214 31.9431L325.411 22L313 79.1718L358.802 89.1149L371.214 31.9431Z" fill="#3369FF"/>
</svg>
