<svg width="1451" height="632" viewBox="0 0 1451 632" fill="none" xmlns="http://www.w3.org/2000/svg">
<path d="M734.607 206.53C733.213 196.125 733.54 187.003 735.586 179.163C737.712 171.219 741.28 164.925 746.288 160.282C751.296 155.64 757.349 152.843 764.447 151.893C771.544 150.942 778.12 152.048 784.173 155.209C790.214 158.277 795.253 163.323 799.29 170.348C803.42 177.361 806.181 186.069 807.574 196.474C808.968 206.879 808.601 216.054 806.475 223.999C804.429 231.838 800.901 238.079 795.893 242.722C790.885 247.364 784.832 250.161 777.734 251.111C770.637 252.062 764.067 251.003 758.026 247.935C751.973 244.774 746.882 239.687 742.753 232.674C738.715 225.65 736 216.935 734.607 206.53ZM784.76 199.529C783.466 189.868 781.199 182.748 777.959 178.17C774.718 173.592 771.116 171.568 767.153 172.099C763.097 172.642 760.108 175.548 758.187 180.818C756.357 186.075 756.102 193.627 757.421 203.475C758.715 213.136 760.982 220.256 764.222 224.834C767.463 229.412 771.065 231.436 775.028 230.905C778.992 230.374 781.935 227.474 783.856 222.205C785.765 216.843 786.067 209.284 784.76 199.529Z" fill="black"/>
<path d="M664.424 181.08L673.558 179.916L676.136 200.138L667.003 201.303L669.546 221.247L646.713 224.158L644.17 204.214L600.303 209.808L598.329 194.327L639.483 124.449L656.92 122.225L664.424 181.08ZM638.746 161.677L623.74 186.268L641.591 183.992L638.746 161.677Z" fill="black"/>
<path d="M927.285 201.704L936.148 204.195L930.633 223.821L921.769 221.33L916.33 240.686L894.171 234.459L899.61 215.103L857.037 203.14L861.259 188.116L926.413 139.83L943.335 144.585L927.285 201.704ZM911.211 173.82L887.8 190.609L905.125 195.477L911.211 173.82Z" fill="black"/>
<path fill-rule="evenodd" clip-rule="evenodd" d="M100.446 184.682L185.509 271.673L270.571 358.663L169.99 392.347L69.5443 425.985L85.0626 305.311L100.446 184.682Z" fill="#E84240"/>
<path fill-rule="evenodd" clip-rule="evenodd" d="M405.587 108.07C432.345 121.525 464.681 111.289 477.856 85.0875C491.032 58.8866 480.022 26.853 453.208 13.3694L426.621 0L379.028 94.6455L405.615 108.015L405.587 108.07Z" fill="#F7A81C"/>
<path fill-rule="evenodd" clip-rule="evenodd" d="M1018.4 610.695C1043.43 604.424 1063.09 587.81 1074.12 566.499L1046.04 454.447C1026.27 440.852 1001.1 435.471 976.068 441.742C929.654 453.371 901.458 500.557 913.151 547.227C924.844 593.897 971.984 622.324 1018.4 610.695Z" fill="#11B2AD"/>
<path d="M1450.13 95.9124L1312.34 66L1275 237.994L1412.79 267.906L1450.13 95.9124Z" fill="#3369FF"/>
</svg>
