<svg width="160" height="160" viewBox="0 0 160 160" fill="none" xmlns="http://www.w3.org/2000/svg">
<circle cx="80" cy="80" r="80" fill="#D9D9D9"/>
<path d="M36.25 59V86.5H46.85V94H27.25V59H36.25ZM49.1281 82.3C49.1281 80.4 49.4615 78.7 50.1281 77.2C50.7948 75.7 51.7115 74.4333 52.8781 73.4C54.0448 72.3333 55.4448 71.5333 57.0781 71C58.7115 70.4333 60.4781 70.15 62.3781 70.15C64.3448 70.15 66.1448 70.45 67.7781 71.05C69.4115 71.6167 70.8115 72.4333 71.9781 73.5C73.1448 74.5333 74.0448 75.8 74.6781 77.3C75.3115 78.8 75.6281 80.4667 75.6281 82.3C75.6281 84.2 75.2948 85.9 74.6281 87.4C73.9615 88.8667 73.0448 90.1167 71.8781 91.15C70.7115 92.1833 69.3115 92.9833 67.6781 93.55C66.0448 94.0833 64.2781 94.35 62.3781 94.35C60.4115 94.35 58.6115 94.0667 56.9781 93.5C55.3781 92.9333 53.9948 92.1333 52.8281 91.1C51.6615 90.0333 50.7448 88.7667 50.0781 87.3C49.4448 85.8 49.1281 84.1333 49.1281 82.3ZM66.8281 82.3C66.8281 80.7667 66.4615 79.5 65.7281 78.5C64.9948 77.5 63.8781 77 62.3781 77C60.8781 77 59.7615 77.5 59.0281 78.5C58.2948 79.5 57.9281 80.7667 57.9281 82.3C57.9281 83.8 58.2948 85.05 59.0281 86.05C59.7615 87.0167 60.8781 87.5 62.3781 87.5C63.8115 87.5 64.9115 87.0167 65.6781 86.05C66.4448 85.0833 66.8281 83.8333 66.8281 82.3ZM96.2797 70.5H104.08V94C104.046 96.6667 103.463 98.9333 102.33 100.8C101.196 102.7 99.6297 104.117 97.6297 105.05C95.663 106.017 93.3964 106.5 90.8297 106.5C88.5297 106.5 86.363 106.083 84.3297 105.25C82.2964 104.417 80.713 103.267 79.5797 101.8L83.5797 96.35C84.813 97.45 85.8964 98.25 86.8297 98.75C87.7964 99.25 88.9464 99.5 90.2797 99.5C92.2464 99.5 93.663 98.9667 94.5297 97.9C95.3964 96.8667 95.8297 95.35 95.8297 93.35V90.4C95.0964 91.6333 94.0964 92.6 92.8297 93.3C91.563 94 90.0964 94.35 88.4297 94.35C86.4297 94.35 84.6464 93.8333 83.0797 92.8C81.5464 91.7333 80.3464 90.2833 79.4797 88.45C78.6464 86.6167 78.2297 84.5333 78.2297 82.2C78.2297 79.8667 78.6464 77.7833 79.4797 75.95C80.3464 74.1167 81.5464 72.7 83.0797 71.7C84.613 70.6667 86.3964 70.15 88.4297 70.15C90.3964 70.15 92.063 70.6167 93.4297 71.55C94.8297 72.4833 95.7797 73.7 96.2797 75.2V70.5ZM95.8297 82.3V82C95.8297 80.5 95.413 79.3333 94.5797 78.5C93.7464 77.6333 92.7297 77.2 91.5297 77.2C90.2964 77.2 89.2297 77.6333 88.3297 78.5C87.463 79.3333 87.0297 80.5833 87.0297 82.25C87.0297 83.85 87.463 85.1167 88.3297 86.05C89.1964 86.9833 90.2797 87.45 91.5797 87.45C92.7797 87.45 93.7797 87.0167 94.5797 86.15C95.3797 85.2833 95.7964 84 95.8297 82.3ZM107.673 82.3C107.673 80.4 108.006 78.7 108.673 77.2C109.34 75.7 110.256 74.4333 111.423 73.4C112.59 72.3333 113.99 71.5333 115.623 71C117.256 70.4333 119.023 70.15 120.923 70.15C122.89 70.15 124.69 70.45 126.323 71.05C127.956 71.6167 129.356 72.4333 130.523 73.5C131.69 74.5333 132.59 75.8 133.223 77.3C133.856 78.8 134.173 80.4667 134.173 82.3C134.173 84.2 133.84 85.9 133.173 87.4C132.506 88.8667 131.59 90.1167 130.423 91.15C129.256 92.1833 127.856 92.9833 126.223 93.55C124.59 94.0833 122.823 94.35 120.923 94.35C118.956 94.35 117.156 94.0667 115.523 93.5C113.923 92.9333 112.54 92.1333 111.373 91.1C110.206 90.0333 109.29 88.7667 108.623 87.3C107.99 85.8 107.673 84.1333 107.673 82.3ZM125.373 82.3C125.373 80.7667 125.006 79.5 124.273 78.5C123.54 77.5 122.423 77 120.923 77C119.423 77 118.306 77.5 117.573 78.5C116.84 79.5 116.473 80.7667 116.473 82.3C116.473 83.8 116.84 85.05 117.573 86.05C118.306 87.0167 119.423 87.5 120.923 87.5C122.356 87.5 123.456 87.0167 124.223 86.05C124.99 85.0833 125.373 83.8333 125.373 82.3Z" fill="#B0B0B0"/>
</svg>
