<svg width="230" height="197" viewBox="0 0 230 197" fill="none" xmlns="http://www.w3.org/2000/svg">
<path fill-rule="evenodd" clip-rule="evenodd" d="M79.6437 142.018C87.761 142.018 95.0324 145.564 100.036 151.2V187.37C95.0324 192.987 87.761 196.552 79.6437 196.552C64.597 196.552 52.376 184.363 52.376 169.312C52.376 154.26 64.597 142.018 79.6437 142.018Z" fill="#11B2AD"/>
<path fill-rule="evenodd" clip-rule="evenodd" d="M8.26132 172.138C16.5766 172.138 23.3081 165.405 23.3081 157.087C23.3081 148.769 16.5766 142.035 8.26132 142.035H0V172.156H8.26132V172.138Z" fill="#F7A81C"/>
<path fill-rule="evenodd" clip-rule="evenodd" d="M208.747 142.018C216.864 142.018 224.135 145.564 229.139 151.2V187.37C224.135 192.987 216.864 196.552 208.747 196.552C193.7 196.552 181.479 184.363 181.479 169.312C181.479 154.26 193.7 142.018 208.747 142.018Z" fill="#11B2AD"/>
<path fill-rule="evenodd" clip-rule="evenodd" d="M137.365 172.138C145.68 172.138 152.412 165.405 152.412 157.087C152.412 148.769 145.68 142.035 137.365 142.035H129.104V172.156H137.365V172.138Z" fill="#F7A81C"/>
<path fill-rule="evenodd" clip-rule="evenodd" d="M20.3923 72.4316C12.275 72.4316 5.00358 75.9785 0 81.6138V117.784C5.00358 123.402 12.275 126.966 20.3923 126.966C35.4391 126.966 47.66 114.778 47.66 99.726C47.66 84.6745 35.4391 72.4316 20.3923 72.4316Z" fill="#11B2AD"/>
<path fill-rule="evenodd" clip-rule="evenodd" d="M91.7743 102.552C83.459 102.552 76.7275 95.8187 76.7275 87.5007C76.7275 79.1828 83.459 72.4492 91.7743 72.4492H100.036V102.57H91.7743V102.552Z" fill="#F7A81C"/>
<path fill-rule="evenodd" clip-rule="evenodd" d="M79.6437 142.018C87.761 142.018 95.0324 145.564 100.036 151.2V187.37C95.0324 192.987 87.761 196.552 79.6437 196.552C64.597 196.552 52.376 184.363 52.376 169.312C52.376 154.26 64.597 142.018 79.6437 142.018Z" fill="#11B2AD"/>
<path fill-rule="evenodd" clip-rule="evenodd" d="M8.26132 172.138C16.5766 172.138 23.3081 165.405 23.3081 157.087C23.3081 148.769 16.5766 142.035 8.26132 142.035H0V172.156H8.26132V172.138Z" fill="#F7A81C"/>
<path fill-rule="evenodd" clip-rule="evenodd" d="M79.6437 0C87.761 0 95.0324 3.54683 100.036 9.18214V45.3526C95.0324 50.9699 87.761 54.5347 79.6437 54.5347C64.597 54.5347 52.376 42.3459 52.376 27.2944C52.376 12.2429 64.597 0 79.6437 0Z" fill="#11B2AD"/>
<path fill-rule="evenodd" clip-rule="evenodd" d="M8.26132 30.121C16.5766 30.121 23.3081 23.3875 23.3081 15.0695C23.3081 6.75158 16.5946 0 8.26132 0H0V30.121H8.26132Z" fill="#F7A81C"/>
<path fill-rule="evenodd" clip-rule="evenodd" d="M149.496 72.4316C141.378 72.4316 134.107 75.9785 129.104 81.6138V117.784C134.107 123.402 141.378 126.966 149.496 126.966C164.543 126.966 176.764 114.778 176.764 99.726C176.764 84.6745 164.543 72.4316 149.496 72.4316Z" fill="#11B2AD"/>
<path fill-rule="evenodd" clip-rule="evenodd" d="M220.878 102.552C212.562 102.552 205.831 95.8187 205.831 87.5007C205.831 79.1828 212.562 72.4492 220.878 72.4492H229.139V102.57H220.878V102.552Z" fill="#F7A81C"/>
<path fill-rule="evenodd" clip-rule="evenodd" d="M208.747 142.018C216.864 142.018 224.135 145.564 229.139 151.2V187.37C224.135 192.987 216.864 196.552 208.747 196.552C193.7 196.552 181.479 184.363 181.479 169.312C181.479 154.26 193.7 142.018 208.747 142.018Z" fill="#11B2AD"/>
<path fill-rule="evenodd" clip-rule="evenodd" d="M137.365 172.138C145.68 172.138 152.412 165.405 152.412 157.087C152.412 148.769 145.68 142.035 137.365 142.035H129.104V172.156H137.365V172.138Z" fill="#F7A81C"/>
<path fill-rule="evenodd" clip-rule="evenodd" d="M208.747 0C216.864 0 224.135 3.54683 229.139 9.18214V45.3526C224.135 50.9699 216.864 54.5347 208.747 54.5347C193.7 54.5347 181.479 42.3459 181.479 27.2944C181.479 12.2429 193.7 0 208.747 0Z" fill="#11B2AD"/>
<path fill-rule="evenodd" clip-rule="evenodd" d="M137.365 30.121C145.68 30.121 152.412 23.3875 152.412 15.0695C152.412 6.75158 145.698 0 137.365 0H129.104V30.121H137.365Z" fill="#F7A81C"/>
</svg>
