<svg width="165" height="197" viewBox="0 0 165 197" fill="none" xmlns="http://www.w3.org/2000/svg">
<path fill-rule="evenodd" clip-rule="evenodd" d="M43.68 0L87.4099 90.9331H0.00012207L21.8734 45.4582L43.68 0Z" fill="#EA4335"/>
<path fill-rule="evenodd" clip-rule="evenodd" d="M45.3291 105.95C58.8396 105.95 70.9174 111.871 79.2302 121.27V181.63C70.9174 191.013 58.8229 196.95 45.3291 196.95C20.3073 196.95 0 176.613 0 151.492C0 126.371 20.3073 105.95 45.3291 105.95Z" fill="#10B390"/>
<path fill-rule="evenodd" clip-rule="evenodd" d="M107.744 50.2582C121.587 50.2582 132.766 39.0191 132.766 25.1375C132.766 11.2558 121.587 0 107.744 0H94V50.2582H107.744Z" fill="#F7A71A"/>
<path d="M164.291 105.95H92.041V196.933H164.291V105.95Z" fill="#3369FF"/>
</svg>
