<svg xmlns="http://www.w3.org/2000/svg">
<defs>
<clipPath id="clip0_85_3526">
<rect width="42" height="42" fill="white" transform="translate(0 0.90625)"/>
</clipPath>


<clipPath id="clip0_54_31">
<rect width="20" height="18" fill="white"/>
</clipPath>
</defs>
<symbol id="icon_arrow-right" viewBox="0 0 24 22">
<path d="M24,10.5H2.2l9.2-9.1l-0.8-0.8L0.3,11l10.3,10.4l0.8-0.8l-9.2-9.1H24V10.5z" fill="currentColor"/>
</symbol>
<symbol id="icon_burger" viewBox="0 0 17 18">
<rect width="17" height="2" fill="currentColor"/>
<rect y="8" width="17" height="2" fill="currentColor"/>
<rect y="16" width="17" height="2" fill="currentColor"/>
</symbol>
<symbol id="icon_checkmark" viewBox="0 0 42 43">
<g clip-path="url(#clip0_85_3526)">
<path d="M9.45468 5.90501C10.4476 5.96617 11.4445 6.11772 12.4308 6.05923C13.2045 6.0127 13.9807 5.75744 14.7238 5.50219C15.4535 5.25092 15.8988 4.65267 16.3268 4.0132C16.812 3.29131 17.3544 2.56277 18.0163 2.01238C19.6779 0.633741 21.8046 0.549985 23.6137 1.72655C24.1308 2.0629 24.5841 2.52289 25.0015 2.98554C25.4654 3.49871 25.8163 4.11557 26.2855 4.62209C26.9408 5.32936 27.8128 5.7149 28.7579 5.78004C29.7096 5.84652 30.684 5.84386 31.6291 5.72421C34.4284 5.36924 36.724 6.86753 37.1946 9.53441C37.3262 10.2816 37.1879 11.0859 37.1109 11.8583C36.9407 13.5626 37.0603 15.2085 38.246 16.5526C38.7764 17.1535 39.4463 17.6441 40.103 18.1147C41.9041 19.4016 42.4145 21.7507 41.6622 23.6279C41.2913 24.5532 40.7556 25.3522 39.9262 25.9451C39.3227 26.3772 38.698 26.804 38.1849 27.3331C37.4139 28.1268 37.1015 29.1598 37.0829 30.2486C37.0683 31.0915 37.1029 31.945 37.2278 32.7772C37.7369 36.1753 34.685 38.6095 31.9242 38.1389C30.583 37.9102 29.2125 37.7786 27.8899 38.2864C26.9634 38.6427 26.1699 39.1612 25.593 40.0267C25.1477 40.6954 24.6187 41.3508 23.9966 41.8507C21.8724 43.555 18.7966 43.1416 17.1257 40.9959C16.6485 40.383 16.2272 39.7143 15.6875 39.1625C14.9125 38.3702 13.8877 38.0299 12.7977 38.0006C11.9217 37.978 11.0258 37.978 10.1698 38.1335C7.28669 38.656 4.3052 36.1274 4.79968 32.6868C4.94456 31.6804 4.98178 30.6261 4.85285 29.6211C4.68802 28.3382 4.04068 27.2733 2.9188 26.5048C2.24222 26.0409 1.57627 25.5024 1.06451 24.8683C-0.266057 23.2171 -0.303275 21.3878 0.694984 19.5664C1.02729 18.9602 1.55633 18.4404 2.06676 17.9578C2.58118 17.4726 3.22187 17.1216 3.73894 16.6377C4.41686 16.0048 4.80234 15.1633 4.86481 14.2553C4.9326 13.2715 4.9233 12.2651 4.80367 11.2866C4.48996 8.72743 5.99334 6.51124 8.51623 5.95819C8.82063 5.89172 9.13965 5.88773 9.45202 5.85582C9.45335 5.8731 9.45335 5.88906 9.45468 5.90501ZM19.2113 24.3299C19.0744 24.2009 18.9548 24.0919 18.8391 23.9776C17.91 23.0509 16.9901 22.115 16.0517 21.199C15.3605 20.525 14.325 20.5236 13.6777 21.1658C13.0303 21.8092 13.021 22.8568 13.6936 23.5388C15.0694 24.9334 16.4584 26.3161 17.8502 27.696C18.3074 28.1494 18.8511 28.3129 19.4931 28.1281C20.0913 27.9553 20.6362 27.7306 21.0576 27.2307C21.4205 26.8 21.8485 26.4264 22.2473 26.0262C24.4432 23.83 26.6351 21.6324 28.8363 19.4415C29.2723 19.0081 29.5554 18.5202 29.4677 17.8927C29.3747 17.2346 29.0198 16.752 28.3738 16.5353C27.6746 16.3013 27.0751 16.4834 26.5567 17.0033C24.2465 19.3192 21.9323 21.6311 19.618 23.9443C19.4918 24.0706 19.3588 24.1916 19.2113 24.3299Z" fill="#10B390"/>
</g>

</symbol>
<symbol id="icon_circle-green" viewBox="0 0 14 16">
<path fill-rule="evenodd" clip-rule="evenodd" d="M8.01111 16C10.3963 16 12.5326 14.9586 14 13.3057V2.69431C12.5326 1.04146 10.3963 0 8.01111 0C3.58815 0 0 3.57513 0 7.99482C0 12.4145 3.58815 16 8.01111 16Z" fill="#11B2AD"/>
</symbol>
<symbol id="icon_circle-yellow" viewBox="0 0 13 13">
<path fill-rule="evenodd" clip-rule="evenodd" d="M2.55618 11.5262C5.12875 13.4443 8.81712 12.8514 10.8016 10.1898C12.7862 7.52814 12.3071 3.82806 9.72904 1.90588L7.17285 0L0.00419476 9.61466L2.56038 11.5205L2.55618 11.5262Z" fill="#F7A81C"/>
</symbol>
<symbol id="icon_cross" viewBox="0 0 21 21">
<rect y="20.1655" width="27.1458" height="1.18025" transform="rotate(-45 0 20.1655)" fill="currentColor"/>
<rect x="19.1953" y="21" width="27.1458" height="1.18025" transform="rotate(-135 19.1953 21)" fill="currentColor"/>
</symbol>
<symbol id="icon_exclamation-reverse" viewBox="0 0 8 36">
<path d="M0.849806 12L6.49981 12L6.49981 35.5L0.849806 35.5L0.849806 12ZM7.29981 3.49999C7.29981 4.56666 6.99981 5.43333 6.39981 6.1C5.76647 6.8 4.86647 7.15 3.69981 7.15C2.56647 7.15 1.66647 6.8 0.999807 6.1C0.333141 5.43333 -0.000192799 4.56666 -0.000192706 3.49999C-0.000192621 2.53332 0.333141 1.69999 0.999808 0.999992C1.66647 0.333324 2.56647 -8.0432e-06 3.69981 -7.94412e-06C4.79981 -7.84795e-06 5.68314 0.333324 6.34981 0.999992C6.98314 1.66666 7.29981 2.49999 7.29981 3.49999Z" fill="currentColor"/>
</symbol>
<symbol id="icon_exclamation" viewBox="0 0 8 36">
<path d="M6.45 23.5H0.8L0.2 0H7.05L6.45 23.5ZM0 32C0 30.9333 0.3 30.0667 0.9 29.4C1.53333 28.7 2.43333 28.35 3.6 28.35C4.73333 28.35 5.63333 28.7 6.3 29.4C6.96667 30.0667 7.3 30.9333 7.3 32C7.3 32.9667 6.96667 33.8 6.3 34.5C5.63333 35.1667 4.73333 35.5 3.6 35.5C2.5 35.5 1.61667 35.1667 0.95 34.5C0.316667 33.8333 0 33 0 32Z" fill="currentColor"/>
</symbol>
<symbol id="icon_eye" viewBox="0 0 16 9">
<path d="M0 4.38186C0.16649 4.15224 0.31539 3.90909 0.501924 3.69494C1.50782 2.53912 2.68347 1.57426 4.10457 0.89468C5.07446 0.430806 6.09713 0.135086 7.18238 0.0376719C9.2907 -0.151357 11.1978 0.37746 12.9441 1.47839C14.078 2.19314 15.0229 3.09422 15.8472 4.11358C16.0505 4.36485 16.0509 4.63737 15.8484 4.88787C14.8978 6.06418 13.7872 7.07542 12.4295 7.82844C11.307 8.4512 10.1043 8.84665 8.80269 8.96301C6.9083 9.13232 5.15873 8.71599 3.53106 7.80602C2.18523 7.05377 1.08566 6.04523 0.1444 4.87511C0.0830404 4.79896 0.0474516 4.70425 0 4.61805C0 4.53919 0 4.46072 0 4.38186ZM7.89047 1.3257C6.06481 1.35817 4.60649 2.82401 4.63758 4.59447C4.66785 6.32549 6.22435 7.70745 8.10605 7.67382C9.92558 7.64174 11.3937 6.16661 11.3606 4.40389C11.3283 2.67209 9.77299 1.29207 7.89047 1.3257Z" fill="black"/>
<path d="M8.00501 2.78806C8.988 2.7869 9.80776 3.54882 9.81104 4.46651C9.81431 5.43137 8.99945 6.21068 7.98824 6.20991C7.00321 6.20914 6.18958 5.4391 6.18917 4.50826C6.18917 3.56505 7.00812 2.78961 8.00501 2.78806Z" fill="black"/>
</symbol>
<symbol id="icon_heart" viewBox="0 0 20 18">
<g clip-path="url(#clip0_54_31)">
<path d="M9.88913 2.19183C10.3681 1.77926 10.798 1.33838 11.2936 0.992833C14.5979 -1.31444 19.1835 0.608575 19.8963 4.60716C20.2304 6.47933 19.7571 8.16082 18.4519 9.53432C16.8554 11.2141 15.2063 12.8424 13.5789 14.4921C12.5161 15.5698 11.4526 16.6474 10.3892 17.7245C10.0243 18.0943 9.78593 18.092 9.41586 17.7158C6.79861 15.0578 4.17623 12.405 1.5664 9.73945C0.652926 8.80568 0.143732 7.6662 0.0245585 6.35394C-0.208086 3.79011 1.22941 1.40656 3.60375 0.540969C5.79904 -0.259904 7.77253 0.19196 9.48315 1.80295C9.61372 1.92603 9.73746 2.05546 9.86519 2.18143C9.87488 2.1901 9.89084 2.19241 9.88913 2.19183Z" fill="currentColor"/>
</g>

</symbol>
<symbol id="icon_home" viewBox="0 0 19 19">
<path d="M15.9999 8H2.99994V19H15.9999V8Z" fill="currentColor"/>
<path fill-rule="evenodd" clip-rule="evenodd" d="M9.49362 0L14.2468 4.5L19 9H9.49362H0L4.75319 4.5L9.49362 0Z" fill="currentColor"/>
</symbol>
<symbol id="icon_instagram" viewBox="0 0 48 48">
<path fill-rule="evenodd" clip-rule="evenodd" d="M24 6C19.1112 6 18.4992 6.0204 16.5792 6.108C14.6628 6.1956 13.3536 6.5004 12.2088 6.9456C11.0088 7.3968 9.9204 8.1048 9.0204 9.0216C8.10507 9.92056 7.39663 11.0082 6.9444 12.2088C6.5016 13.3536 6.1956 14.664 6.108 16.5804C6.0216 18.4992 6 19.11 6 24C6 28.89 6.0204 29.5008 6.108 31.4208C6.1956 33.3372 6.5004 34.6464 6.9456 35.7912C7.3968 36.9912 8.1048 38.0796 9.0216 38.9796C9.92058 39.8949 11.0082 40.6033 12.2088 41.0556C13.3536 41.4996 14.6628 41.8044 16.5792 41.892C18.4992 41.9796 19.1112 42 24 42C28.8888 42 29.5008 41.9796 31.4208 41.892C33.3372 41.8044 34.6464 41.4996 35.7912 41.0544C36.9912 40.6032 38.0796 39.8952 38.9796 38.9784C39.8949 38.0794 40.6034 36.9918 41.0556 35.7912C41.4996 34.6464 41.8044 33.3372 41.892 31.4208C41.9796 29.5008 42 28.8888 42 24C42 19.1112 41.9796 18.4992 41.892 16.5792C41.8044 14.6628 41.4996 13.3536 41.0544 12.2088C40.6025 11.0077 39.894 9.91959 38.9784 9.0204C38.0794 8.10507 36.9918 7.39663 35.7912 6.9444C34.6464 6.5016 33.336 6.1956 31.4196 6.108C29.5008 6.0216 28.89 6 24 6ZM24 9.2436C28.806 9.2436 29.376 9.2616 31.2744 9.348C33.0288 9.4284 33.9816 9.72 34.6164 9.9684C35.4564 10.2936 36.0564 10.6848 36.6864 11.3136C37.3164 11.9436 37.7064 12.5436 38.0316 13.3836C38.2788 14.0184 38.5716 14.9712 38.652 16.7256C38.7384 18.624 38.7564 19.194 38.7564 24C38.7564 28.806 38.7384 29.376 38.652 31.2744C38.5716 33.0288 38.28 33.9816 38.0316 34.6164C37.7435 35.3983 37.2839 36.1056 36.6864 36.6864C36.1057 37.284 35.3983 37.7437 34.6164 38.0316C33.9816 38.2788 33.0288 38.5716 31.2744 38.652C29.376 38.7384 28.8072 38.7564 24 38.7564C19.1928 38.7564 18.624 38.7384 16.7256 38.652C14.9712 38.5716 14.0184 38.28 13.3836 38.0316C12.6017 37.7435 11.8944 37.2839 11.3136 36.6864C10.7162 36.1055 10.2566 35.3982 9.9684 34.6164C9.7212 33.9816 9.4284 33.0288 9.348 31.2744C9.2616 29.376 9.2436 28.806 9.2436 24C9.2436 19.194 9.2616 18.624 9.348 16.7256C9.4284 14.9712 9.72 14.0184 9.9684 13.3836C10.2936 12.5436 10.6848 11.9436 11.3136 11.3136C11.8943 10.7161 12.6017 10.2564 13.3836 9.9684C14.0184 9.7212 14.9712 9.4284 16.7256 9.348C18.624 9.2616 19.194 9.2436 24 9.2436Z" fill="currentColor"/>
<path fill-rule="evenodd" clip-rule="evenodd" d="M24 30.0056C23.2113 30.0056 22.4303 29.8502 21.7016 29.5484C20.973 29.2466 20.3109 28.8042 19.7532 28.2465C19.1955 27.6888 18.7531 27.0267 18.4512 26.298C18.1494 25.5693 17.994 24.7883 17.994 23.9996C17.994 23.2109 18.1494 22.4299 18.4512 21.7012C18.7531 20.9725 19.1955 20.3104 19.7532 19.7527C20.3109 19.195 20.973 18.7526 21.7016 18.4508C22.4303 18.1489 23.2113 17.9936 24 17.9936C25.5929 17.9936 27.1206 18.6264 28.2469 19.7527C29.3733 20.879 30.006 22.4067 30.006 23.9996C30.006 25.5925 29.3733 27.1201 28.2469 28.2465C27.1206 29.3728 25.5929 30.0056 24 30.0056ZM24 14.7476C21.5463 14.7476 19.193 15.7223 17.4579 17.4574C15.7228 19.1925 14.748 21.5458 14.748 23.9996C14.748 26.4534 15.7228 28.8066 17.4579 30.5417C19.193 32.2768 21.5463 33.2516 24 33.2516C26.4538 33.2516 28.8071 32.2768 30.5422 30.5417C32.2773 28.8066 33.252 26.4534 33.252 23.9996C33.252 21.5458 32.2773 19.1925 30.5422 17.4574C28.8071 15.7223 26.4538 14.7476 24 14.7476ZM35.9436 14.5796C35.9436 15.1596 35.7132 15.7159 35.3031 16.126C34.8929 16.5362 34.3367 16.7666 33.7566 16.7666C33.1766 16.7666 32.6203 16.5362 32.2102 16.126C31.8001 15.7159 31.5696 15.1596 31.5696 14.5796C31.5696 13.9995 31.8001 13.4433 32.2102 13.0331C32.6203 12.623 33.1766 12.3926 33.7566 12.3926C34.3367 12.3926 34.8929 12.623 35.3031 13.0331C35.7132 13.4433 35.9436 13.9995 35.9436 14.5796Z" fill="currentColor"/>
</symbol>
<symbol id="icon_key" viewBox="0 0 23 23">
<path d="M15.4531 0C15.7825 0 16.1119 0 16.4414 0C16.633 0.0281488 16.8247 0.0574955 17.0163 0.0850454C20.7136 0.612088 23.5047 4.16663 22.9237 7.95834C22.3403 11.7626 18.6964 14.9518 14.2522 13.8343C14.1091 13.7983 14.0216 13.8295 13.9222 13.9325C13.5527 14.3146 13.1711 14.6847 12.7986 15.0632C12.5985 15.2663 12.3667 15.3717 12.0775 15.3633C11.7636 15.3537 11.4486 15.3609 11.1347 15.3609C10.8981 15.3609 10.6616 15.3609 10.4118 15.3609C10.4118 15.9532 10.416 16.5144 10.4106 17.075C10.4058 17.5673 10.0998 17.8787 9.6182 17.8919C9.49841 17.8949 9.37862 17.8901 9.25883 17.8901C8.80544 17.8895 8.35204 17.8901 7.87468 17.8901C7.87468 17.9979 7.87468 18.0787 7.87468 18.159C7.87468 18.6303 7.87647 19.1023 7.87408 19.5736C7.87108 20.1258 7.56143 20.4361 7.014 20.4397C6.73729 20.4415 6.45997 20.4403 6.18326 20.4403C5.90895 20.4403 5.63463 20.4403 5.34355 20.4403C5.34355 21.0206 5.34594 21.5728 5.34295 22.1256C5.34055 22.6442 5.03569 22.9539 4.52479 22.9593C3.34967 22.9719 2.17454 22.9689 1.00001 23C0.524453 23.0126 0.189644 22.8569 0.000976562 22.4155C0.000976562 21.3524 0.000976562 20.2893 0.000976562 19.2263C0.0105596 19.0478 0.0405068 18.8681 0.0261322 18.6914C-0.00740863 18.2782 0.148915 17.9727 0.442996 17.6805C3.32032 14.8201 6.18566 11.9477 9.05639 9.0807C9.15102 8.98607 9.20733 8.90821 9.1672 8.75549C8.90246 7.74872 8.85455 6.72638 9.07795 5.70942C9.69007 2.92508 11.3611 1.09721 14.0953 0.26951C14.5349 0.135354 14.9997 0.0874411 15.4531 0ZM19.3247 5.25964C19.3313 4.41937 18.6041 3.67911 17.7614 3.66953C16.9624 3.65995 16.2293 4.37445 16.2185 5.1728C16.2072 6.01247 16.9612 6.77908 17.798 6.77908C18.5993 6.77908 19.3181 6.06398 19.3247 5.25964Z" fill="currentColor"/>
</symbol>
<symbol id="icon_mail" viewBox="0 0 28 20">
<path d="M0 2.16972C0.0745117 1.93508 0.14834 1.70112 0.244043 1.39844C3.0584 4.31489 5.83721 7.19315 8.54834 10.002C5.84678 12.7997 3.06318 15.6822 0.243359 18.6028C0.147656 18.3008 0.0738281 18.0661 0 17.8315C0 12.6109 0 7.39031 0 2.16972Z" fill="currentColor"/>
<path d="M28 17.8294C27.9262 18.0641 27.8517 18.298 27.756 18.6007C24.9416 15.6843 22.1642 12.8053 19.4517 9.99506C22.1532 7.19871 24.9368 4.31697 27.7566 1.39844C27.8517 1.69834 27.9255 1.93299 28 2.16695C28 7.38823 28 12.6088 28 17.8294Z" fill="currentColor"/>
<path d="M1.4397 0.168245C1.84028 0.113401 2.24087 0.0120434 2.64146 0.0113492C9.14858 0.00163001 15.6557 0.00440692 22.1628 0.00440692C23.2566 0.00440692 24.3503 -0.00947763 25.4434 0.0120434C25.818 0.0196799 26.1899 0.11826 26.6335 0.1856C26.5139 0.320975 26.4633 0.384149 26.4066 0.441076C22.8861 3.99899 19.3656 7.5576 15.8437 11.1141C15.0863 11.8792 14.1935 12.1652 13.1736 11.7827C12.8188 11.6494 12.4702 11.4154 12.2001 11.144C8.64272 7.57149 5.09966 3.98372 1.55317 0.399422C1.51489 0.36124 1.48071 0.318892 1.44448 0.278627C1.44312 0.241833 1.44106 0.205039 1.4397 0.168245Z" fill="currentColor"/>
<path d="M18.1187 11.1589C20.9193 14.0593 23.6981 16.9376 26.477 19.8159C26.2773 19.8617 25.9923 19.9311 25.7052 19.9908C25.6259 20.0075 25.5418 19.9991 25.4598 19.9991C17.824 19.9991 10.1883 20.0019 2.55254 19.9922C2.18066 19.9915 1.80879 19.8846 1.4834 19.8339C4.28545 16.932 7.06494 14.0538 9.87109 11.1484C10.2655 11.5511 10.5978 11.9308 10.973 12.2613C11.3483 12.5917 11.7339 12.9389 12.1721 13.1638C13.81 14.0066 15.6276 13.6733 16.9675 12.3335C17.3414 11.96 17.7092 11.5775 18.1187 11.1589Z" fill="currentColor"/>
</symbol>
<symbol id="icon_minus" viewBox="0 0 47 3">
<path d="M1 1.5L45.5 1.5" stroke="currentColor" stroke-width="2" stroke-linecap="square"/>
</symbol>
<symbol id="icon_money" viewBox="0 0 20 30">
<path d="M7.9668 16.8429V19.7143H16.639V24.0429H7.9668V30H3.19502V24.0429H0V19.7143H3.19502V16.8429H0V12.3429H3.19502V0H10.3734C13.3887 0 15.74 0.7 17.4274 2.1C19.1425 3.47143 20 5.52857 20 8.27143C20 11.0429 19.1425 13.1714 17.4274 14.6571C15.7123 16.1143 13.361 16.8429 10.3734 16.8429H7.9668ZM7.9668 4.71429V12.3429H9.83402C13.1259 12.3429 14.7718 11.0143 14.7718 8.35714C14.7718 7.12857 14.3707 6.21429 13.5685 5.61429C12.7663 5.01429 11.4799 4.71429 9.70954 4.71429H7.9668Z" fill="currentColor"/>
</symbol>
<symbol id="icon_mute" viewBox="0 0 49 39">
<path d="M0 13.7435C0.088024 13.4681 0.168394 13.1888 0.266623 12.9173C0.876412 11.2466 2.41492 10.1462 4.15881 10.1397C5.86444 10.1345 7.57006 10.1371 9.27568 10.1397C9.83189 10.141 9.94926 10.2579 9.94926 10.8231C9.95053 16.6016 9.95053 22.3802 9.94926 28.1587C9.94926 28.7238 9.83189 28.8433 9.27696 28.8446C7.60323 28.8472 5.9295 28.8485 4.25577 28.8446C2.21973 28.8407 0.582999 27.526 0.0969539 25.5124C0.0739911 25.4201 0.0331684 25.3318 0 25.2409C0 21.4084 0 17.576 0 13.7435Z" fill="white"/>
<path d="M29.0864 19.4909C29.0864 25.1564 29.0864 30.8219 29.0864 36.4887C29.0864 38.0165 28.1423 38.9766 26.6447 38.9779C25.943 38.9792 25.235 39.0389 24.5423 38.9571C24.0422 38.8986 23.4771 38.7687 23.088 38.4712C19.812 35.9704 16.5666 33.428 13.325 30.8791C13.1566 30.7466 13.0265 30.4504 13.0265 30.2295C13.0112 23.07 13.0112 15.9105 13.0277 8.75223C13.0277 8.52228 13.1834 8.21569 13.3633 8.07408C16.578 5.54467 19.8081 3.03344 23.0344 0.51962C23.4924 0.162358 24.0014 -0.0156236 24.5869 -3.39732e-05C25.3192 0.019453 26.054 0.00126516 26.7863 0.00516256C28.0913 0.0129574 29.0825 1.01589 29.0838 2.3462C29.0876 8.06239 29.0851 13.7773 29.0864 19.4909Z" fill="white"/>
<path d="M37.2979 19.4728C35.7964 17.949 34.3319 16.4783 32.8865 14.9908C31.8826 13.958 31.894 12.4536 32.884 11.5299C33.8229 10.653 35.1841 10.6998 36.1498 11.6676C37.5008 13.0239 38.8352 14.3971 40.1772 15.7625C40.2984 15.8859 40.4273 16.0016 40.5727 16.1406C40.7207 15.9977 40.8482 15.8807 40.9694 15.7573C42.323 14.3802 43.6599 12.9863 45.0326 11.6313C46.3861 10.2945 48.5178 10.9064 48.9362 12.742C49.1403 13.6371 48.8469 14.3971 48.2129 15.0402C46.89 16.3796 45.5747 17.7255 44.2544 19.0662C44.1306 19.1909 43.9878 19.2962 43.8155 19.4417C43.9839 19.6235 44.0962 19.7522 44.2148 19.8743C45.5671 21.2527 46.9334 22.6167 48.2678 24.012C49.5907 25.3943 49.0255 27.5483 47.2281 28.0056C46.3504 28.229 45.599 27.9458 44.9662 27.3001C43.6382 25.9438 42.3051 24.5927 40.9796 23.2325C40.8584 23.1078 40.7781 22.9402 40.6594 22.7635C40.4336 22.9779 40.3048 23.0935 40.1836 23.2156C38.8301 24.5914 37.4918 25.9841 36.1205 27.343C34.7644 28.6863 32.6416 28.0965 32.204 26.2647C31.991 25.3722 32.2729 24.6083 32.9095 23.9639C34.2439 22.6141 35.5706 21.2566 36.9012 19.9016C37.0224 19.7755 37.1385 19.6456 37.2979 19.4728Z" fill="white"/>
</symbol>
<symbol id="icon_pencil" viewBox="0 0 23 23">
<path d="M14.6688 3.30469C16.3482 4.9821 18.02 6.65184 19.7045 8.33436C19.6694 8.37462 19.6265 8.4283 19.5779 8.47686C15.5056 12.5493 11.4333 16.6224 7.35712 20.691C7.2363 20.8117 7.08798 20.9293 6.92943 20.9855C5.34398 21.5479 3.75468 22.1013 2.16283 22.6463C1.78629 22.7754 1.39823 22.8732 1.01082 22.9658C0.331885 23.1275 -0.161653 22.6221 0.048037 21.9568C0.450794 20.6801 0.877206 19.4104 1.30042 18.1394C1.52162 17.4735 1.74921 16.8102 1.99022 16.1514C2.05096 15.9846 2.14813 15.8146 2.27215 15.69C6.3579 11.5965 10.4488 7.50875 14.539 3.42035C14.5844 3.37626 14.633 3.33664 14.6688 3.30469Z" fill="currentColor"/>
<path d="M15.8489 2.20777C16.43 1.6039 17.0034 0.946358 17.644 0.361022C18.2111 -0.157217 19.1042 -0.104179 19.6565 0.434509C20.6404 1.39303 21.6121 2.36497 22.5724 3.34777C23.1305 3.91905 23.1369 4.81047 22.6229 5.42392C22.5564 5.50316 22.4829 5.57729 22.4093 5.65013C21.8845 6.1754 21.359 6.69939 20.8501 7.20805C19.1662 5.52425 17.4912 3.84939 15.8489 2.20777Z" fill="currentColor"/>
</symbol>
<symbol id="icon_phone" viewBox="0 0 20 17">
<path d="M15.624 10.637C16.0757 10.7886 18.4947 11.879 18.9872 12.1034C19.4797 12.3302 19.8088 12.443 19.9288 12.631C20.0512 12.819 20.0512 13.7214 19.6404 14.773C19.2321 15.8245 17.2648 16.7839 16.3207 16.9137C15.4735 17.0289 14.4005 17.0787 13.2216 16.7354C12.5059 16.5268 11.5898 16.2491 10.416 15.7869C5.47977 13.8342 2.2557 9.28223 2.00946 8.98265L2.00553 8.97784C1.74508 8.65975 0 6.52844 0 4.32152C0 2.10436 1.27202 1.01519 1.7224 0.563993C2.17405 0.112798 2.70863 0 3.03397 0C3.36441 0 3.69103 0.00363755 3.9781 0.0157664C4.28047 0.0303211 4.68619 -0.0873291 5.08426 0.790802C5.49636 1.69198 6.47876 3.90914 6.60252 4.13595C6.72628 4.36033 6.80793 4.62474 6.64462 4.92432C6.47876 5.22512 6.39711 5.41312 6.15214 5.67631C5.90718 5.93951 5.63543 6.26456 5.4147 6.46469C5.16846 6.68907 4.91202 6.93287 5.19909 7.38285C5.48615 7.83525 6.47366 9.31013 7.93706 10.5036C9.81511 12.0391 11.401 12.5146 11.8935 12.7402C12.3859 12.9646 12.673 12.9282 12.9613 12.6274C13.2471 12.3278 14.1913 11.3126 14.5179 10.8614C14.8458 10.4102 15.1737 10.4878 15.624 10.637Z" fill="currentColor"/>
</symbol>
<symbol id="icon_plus" viewBox="0 0 47 47">
<path d="M23 45.5L23 1" stroke="currentColor" stroke-width="2" stroke-linecap="square"/>
<path d="M1 23.5L45.5 23.5" stroke="currentColor" stroke-width="2" stroke-linecap="square"/>
</symbol>
<symbol id="icon_search" viewBox="0 0 20 20">
<path d="M15.25 8C15.25 12.0041 12.0041 15.25 8 15.25C3.99594 15.25 0.75 12.0041 0.75 8C0.75 3.99594 3.99594 0.75 8 0.75C12.0041 0.75 15.25 3.99594 15.25 8Z" fill="currentColor" stroke="currentColor" stroke-width="1.5"/>
<path d="M13 13.5L18.5 19" stroke="currentColor" stroke-width="1.5"/>
</symbol>
<symbol id="icon_star" viewBox="0 0 20 18">
<path d="M3.75278 6.58795C4.83558 6.58795 5.91839 6.58441 7.00119 6.59149C7.16661 6.59267 7.23569 6.53956 7.28537 6.38789C7.94766 4.38367 8.61419 2.38063 9.29162 0.381722C9.33767 0.244803 9.46128 0.093129 9.59035 0.0317513C9.8006 -0.0679875 9.99875 0.0754239 10.0896 0.347492C10.4114 1.30593 10.7301 2.26555 11.05 3.22457C11.3978 4.26799 11.7505 5.30964 12.0892 6.35543C12.1462 6.53189 12.2231 6.59268 12.417 6.59208C14.5372 6.585 16.6574 6.58795 18.7775 6.58677C19.0163 6.58677 19.2695 6.57084 19.3622 6.85117C19.4543 7.12914 19.2447 7.26252 19.0496 7.40003C17.3275 8.61578 15.6085 9.83507 13.8846 11.0485C13.7483 11.1447 13.7113 11.2208 13.7677 11.389C14.436 13.3678 15.0928 15.3508 15.7527 17.332C15.7618 17.3597 15.7709 17.3881 15.7818 17.4158C15.8593 17.6129 15.8557 17.7988 15.6624 17.9293C15.4806 18.052 15.3079 17.9977 15.1407 17.8779C14.5305 17.4418 13.9173 17.0098 13.3053 16.576C12.1668 15.7698 11.0252 14.9672 9.89089 14.1551C9.74607 14.0518 9.65397 14.0406 9.50127 14.1492C7.79739 15.3644 6.08744 16.5701 4.37871 17.7788C4.31751 17.8218 4.25631 17.8655 4.19511 17.9086C4.03696 18.0184 3.86972 18.0367 3.71097 17.9228C3.55161 17.8083 3.52313 17.6495 3.58433 17.4683C3.81216 16.7896 4.03757 16.1104 4.26358 15.4311C4.71136 14.0867 5.15551 12.7411 5.61178 11.399C5.66995 11.2279 5.63905 11.1441 5.4906 11.0402C3.75459 9.82091 2.02283 8.59276 0.290468 7.36639C0.22321 7.31917 0.152315 7.27255 0.0983872 7.21294C-0.0973296 6.99812 0.0135563 6.66881 0.301981 6.60743C0.389236 6.58854 0.482549 6.58972 0.572834 6.58972C1.63261 6.58795 2.69239 6.58795 3.75278 6.58795Z" fill="currentColor"/>
</symbol>
<symbol id="icon_telegram" viewBox="0 0 48 48">
<path fill-rule="evenodd" clip-rule="evenodd" d="M6.74979 21.7758C17.4872 17.2599 24.6471 14.2827 28.2296 12.8442C38.4584 8.73724 40.5838 8.02381 41.9692 8.00025C42.2739 7.99507 42.9551 8.06796 43.3964 8.41363C43.769 8.70551 43.8716 9.09979 43.9206 9.37652C43.9697 9.65325 44.0308 10.2837 43.9822 10.7762C43.4279 16.3984 41.0295 30.0419 39.8093 36.3389C39.293 39.0033 38.2763 39.8967 37.2921 39.9841C35.1532 40.1741 33.529 38.6196 31.4573 37.3087C28.2156 35.2573 26.3842 33.9804 23.2376 31.9787C19.6011 29.6653 21.9585 28.3939 24.0309 26.316C24.5733 25.7722 33.9974 17.4974 34.1798 16.7467C34.2026 16.6528 34.2238 16.3029 34.0085 16.1181C33.7931 15.9333 33.4752 15.9965 33.2459 16.0467C32.9207 16.118 27.742 19.4222 17.7097 25.9596C16.2398 26.9339 14.9083 27.4087 13.7154 27.3838C12.4003 27.3564 9.87055 26.666 7.98995 26.0759C5.68332 25.3521 3.85005 24.9694 4.00969 23.7402C4.09284 23.0999 5.00621 22.4451 6.74979 21.7758Z" fill="currentColor"/>
</symbol>
<symbol id="icon_time" viewBox="0 0 37 40">
<path d="M8.71531 20.93H17.2903V24.85H2.0653V23.38L8.99531 14.455C10.372 12.6817 11.3286 11.305 11.8653 10.325C12.402 9.345 12.6703 8.365 12.6703 7.385C12.6703 6.31167 12.3786 5.47167 11.7953 4.865C11.212 4.235 10.442 3.92 9.48531 3.92C7.89864 3.92 6.5103 4.83 5.3203 6.65L2.0653 4.375C2.88197 3.06833 3.93197 2.03 5.2153 1.26C6.52197 0.466668 8.01531 0.0700012 9.6953 0.0700012C11.1186 0.0700012 12.3786 0.361668 13.4753 0.945C14.5953 1.52833 15.4586 2.33333 16.0653 3.36C16.672 4.36333 16.9753 5.50667 16.9753 6.79C16.9753 8.14333 16.6253 9.52 15.9253 10.92C15.2486 12.32 14.117 14.0233 12.5303 16.03L8.71531 20.93Z" fill="currentColor"/>
<path d="M33.8997 15.12H36.5947V18.935H33.8997V24.85H29.5947V18.935H18.2897V16.38L31.1347 0H33.8997V15.12ZM29.5947 7.735L23.7147 15.12H29.5947V7.735Z" fill="currentColor"/>
<path d="M5.79631 31.624H8.02831V39.85H5.79631V36.862C5.23231 37.102 4.5963 37.222 3.8883 37.222C1.7043 37.222 0.612305 36.118 0.612305 33.91V31.624H2.8443V33.82C2.8443 34.312 2.9583 34.678 3.1863 34.918C3.4263 35.146 3.8523 35.26 4.4643 35.26C4.9203 35.26 5.36431 35.194 5.79631 35.062V31.624Z" fill="currentColor"/>
<path d="M16.0002 31.624H18.1062V39.85H16.0002V38.734C15.7002 39.118 15.3102 39.424 14.8302 39.652C14.3502 39.868 13.8282 39.976 13.2642 39.976C12.6042 39.976 11.9742 39.796 11.3742 39.436C10.7862 39.076 10.3122 38.572 9.9522 37.924C9.5922 37.276 9.4122 36.544 9.4122 35.728C9.4122 34.912 9.58619 34.18 9.93419 33.532C10.2942 32.884 10.7682 32.38 11.3562 32.02C11.9442 31.66 12.5802 31.48 13.2642 31.48C13.8522 31.48 14.3862 31.594 14.8662 31.822C15.3462 32.038 15.7242 32.332 16.0002 32.704V31.624ZM15.8742 35.764V35.62C15.8742 34.984 15.6882 34.462 15.3162 34.054C14.9442 33.646 14.4522 33.442 13.8402 33.442C13.2522 33.442 12.7602 33.646 12.3642 34.054C11.9682 34.45 11.7702 35.008 11.7702 35.728C11.7702 36.436 11.9622 37.006 12.3462 37.438C12.7422 37.858 13.2402 38.068 13.8402 38.068C14.4402 38.068 14.9262 37.852 15.2982 37.42C15.6822 36.988 15.8742 36.436 15.8742 35.764Z" fill="currentColor"/>
<path d="M19.5133 35.764C19.5133 34.888 19.6993 34.126 20.0713 33.478C20.4433 32.83 20.9593 32.338 21.6193 32.002C22.2793 31.654 23.0173 31.48 23.8333 31.48C24.5173 31.48 25.1413 31.6 25.7053 31.84C26.2813 32.068 26.7373 32.368 27.0733 32.74L25.9393 34.252C25.3993 33.676 24.7573 33.388 24.0133 33.388C23.3653 33.388 22.8433 33.604 22.4473 34.036C22.0513 34.468 21.8533 35.02 21.8533 35.692C21.8533 36.388 22.0573 36.964 22.4653 37.42C22.8733 37.864 23.4133 38.086 24.0853 38.086C24.7813 38.086 25.4053 37.792 25.9573 37.204L27.2713 38.5C26.9113 38.968 26.4313 39.334 25.8313 39.598C25.2313 39.85 24.5653 39.976 23.8333 39.976C22.9693 39.976 22.2073 39.802 21.5473 39.454C20.8993 39.106 20.3953 38.614 20.0353 37.978C19.6873 37.33 19.5133 36.592 19.5133 35.764Z" fill="currentColor"/>
<path d="M33.8645 31.624H35.9705V39.85H33.8645V38.734C33.5645 39.118 33.1745 39.424 32.6945 39.652C32.2145 39.868 31.6925 39.976 31.1285 39.976C30.4685 39.976 29.8385 39.796 29.2385 39.436C28.6505 39.076 28.1765 38.572 27.8165 37.924C27.4565 37.276 27.2765 36.544 27.2765 35.728C27.2765 34.912 27.4505 34.18 27.7985 33.532C28.1585 32.884 28.6325 32.38 29.2205 32.02C29.8085 31.66 30.4445 31.48 31.1285 31.48C31.7165 31.48 32.2505 31.594 32.7305 31.822C33.2105 32.038 33.5885 32.332 33.8645 32.704V31.624ZM33.7385 35.764V35.62C33.7385 34.984 33.5525 34.462 33.1805 34.054C32.8085 33.646 32.3165 33.442 31.7045 33.442C31.1165 33.442 30.6245 33.646 30.2285 34.054C29.8325 34.45 29.6345 35.008 29.6345 35.728C29.6345 36.436 29.8265 37.006 30.2105 37.438C30.6065 37.858 31.1045 38.068 31.7045 38.068C32.3045 38.068 32.7905 37.852 33.1625 37.42C33.5465 36.988 33.7385 36.436 33.7385 35.764Z" fill="currentColor"/>
</symbol>
<symbol id="icon_triangle-red" viewBox="0 0 12 14">
<path fill-rule="evenodd" clip-rule="evenodd" d="M6.00403 14L3.00201 7L-2.70245e-07 9.53989e-08L6.00403 -4.2949e-07L12 -9.53674e-07L8.99799 7L6.00403 14Z" fill="#E84240"/>
</symbol>
<symbol id="icon_triangle-right" viewBox="0 0 19 18">
<path fill-rule="evenodd" clip-rule="evenodd" d="M18.3398 8.86156L9.17009 13.295L0.000327289 17.7285L0.000327677 8.86156L0.000328064 -8.01646e-07L9.17009 4.43345L18.3398 8.86156Z" fill="currentColor"/>
</symbol>
<symbol id="icon_truck" viewBox="0 0 27 22">
<path d="M27 0.787624C27 6.29958 27 11.8115 27 17.3235C26.8899 17.4635 26.7949 17.6193 26.667 17.7409C26.414 17.982 26.0817 17.997 25.7556 18.0052C25.5053 18.0114 25.2544 18.0066 25.0062 18.0066C25.0089 20.1727 23.2373 21.9119 21.223 21.9911C20.2992 22.0273 19.4466 21.8149 18.6958 21.2636C17.6032 20.4617 17.0241 19.3803 16.9906 18.0162C14.9892 18.0162 13.0166 18.0162 11.044 18.0162C11.0344 20.3319 9.02484 22.0157 7.04469 21.9993C6.12163 21.9918 5.2813 21.737 4.55447 21.153C3.55346 20.3496 3.02218 19.3093 3.0044 18.0032C2.77056 18.0032 2.56133 18.0073 2.3521 18.0025C1.84408 17.9902 1.33263 18.0052 0.828705 17.9499C0.195551 17.8809 -0.145642 17.2941 0.0615352 16.6916C0.213328 16.2503 0.54905 16.0311 1.01332 15.9771C1.01332 15.8562 1.01332 15.7517 1.01332 15.6472C1.01469 13.6293 1.01263 11.6114 1.01879 9.5935C1.02152 8.82979 1.30596 8.18767 1.85775 7.64871C2.81637 6.71081 3.7579 5.7531 4.71105 4.80563C5.24643 4.2735 5.90009 4.01323 6.65154 4.00504C7.33666 3.99752 8.02178 4.00367 8.7069 4.00367C8.7992 4.00367 8.89083 4.00367 8.99886 4.00367C8.99886 3.85612 8.99886 3.75161 8.99886 3.64641C8.99886 2.8219 9.00159 1.99672 8.99817 1.17221C8.99612 0.793089 9.07407 0.428995 9.41526 0.233628C9.64569 0.101789 9.93765 0.0157178 10.2029 0.0150347C15.3831 0.00273889 20.5652 0.010253 25.7474 6.48059e-06C26.3545 -0.00135972 26.7785 0.213134 27 0.787624ZM3.03654 9.98218C5.02831 9.98218 7.00504 9.98218 8.97288 9.98218C8.97288 8.65082 8.97288 7.34199 8.97288 6.01609C8.15032 6.01609 7.35238 6.00243 6.55581 6.0277C6.3965 6.03248 6.21188 6.15818 6.08949 6.2784C5.18079 7.16848 4.29533 8.08248 3.3791 8.96504C3.07551 9.25673 2.94765 9.56549 3.03654 9.98218ZM21.0042 19.978C22.0866 19.976 23.0021 19.0593 22.9946 17.9854C22.9871 16.9184 22.079 16.0119 21.0117 16.0051C19.9341 15.9983 19.0172 16.9095 19.0145 17.9909C19.0117 19.0729 19.9197 19.9801 21.0042 19.978ZM8.99134 17.9936C8.99134 16.9082 8.08126 15.9996 7.00093 16.0051C5.92197 16.0106 5.01122 16.9314 5.01737 18.01C5.02352 19.0777 5.92813 19.9739 7.00299 19.9787C8.08878 19.9828 8.99202 19.0811 8.99134 17.9936Z" fill="currentColor"/>
</symbol>
<symbol id="icon_unmute" viewBox="0 0 30 39">
<path d="M0 13.7435C0.0880239 13.4681 0.168394 13.1888 0.266623 12.9173C0.876412 11.2466 2.41492 10.1462 4.15881 10.1397C5.86444 10.1345 7.57006 10.1371 9.27568 10.1397C9.83189 10.141 9.94926 10.2579 9.94926 10.8231C9.95053 16.6016 9.95053 22.3802 9.94926 28.1587C9.94926 28.7238 9.83189 28.8433 9.27696 28.8446C7.60323 28.8472 5.9295 28.8485 4.25577 28.8446C2.21973 28.8407 0.582999 27.526 0.0969539 25.5124C0.0739911 25.4201 0.0331684 25.3318 0 25.2409C0 21.4084 0 17.576 0 13.7435Z" fill="white"/>
<path d="M29.0864 19.4909C29.0864 25.1564 29.0864 30.8219 29.0864 36.4887C29.0864 38.0165 28.1423 38.9766 26.6447 38.9779C25.943 38.9792 25.235 39.0389 24.5423 38.9571C24.0422 38.8986 23.4771 38.7687 23.088 38.4712C19.812 35.9704 16.5666 33.428 13.325 30.8791C13.1566 30.7466 13.0265 30.4504 13.0265 30.2295C13.0112 23.07 13.0112 15.9105 13.0277 8.75223C13.0277 8.52228 13.1834 8.21569 13.3633 8.07408C16.578 5.54467 19.8081 3.03344 23.0344 0.51962C23.4924 0.162358 24.0014 -0.0156236 24.5869 -3.39732e-05C25.3192 0.019453 26.054 0.00126516 26.7863 0.00516256C28.0913 0.0129574 29.0825 1.01589 29.0838 2.3462C29.0876 8.06239 29.0851 13.7773 29.0864 19.4909Z" fill="white"/>
</symbol>
<symbol id="icon_user" viewBox="0 0 19 20">
<path d="M14.3155 4.68354C14.3155 7.27019 12.1595 9.36709 9.5 9.36709C6.84046 9.36709 4.68448 7.27019 4.68448 4.68354C4.68448 2.09689 6.84046 0 9.5 0C12.1595 0 14.3155 2.09689 14.3155 4.68354Z" fill="currentColor"/>
<path d="M19 20H0C0.0696501 14.9549 4.29626 10.8861 9.5 10.8861C14.7037 10.8861 18.9303 14.9549 19 20Z" fill="currentColor"/>
</symbol>
<symbol id="icon_vk" viewBox="0 0 48 48">
<path fill-rule="evenodd" clip-rule="evenodd" d="M43.0821 13.4897C43.3602 12.631 43.0821 12 41.7588 12H37.3828C36.2701 12 35.7571 12.5451 35.4789 13.1461C35.4789 13.1461 33.2536 18.1695 30.1011 21.4326C29.0811 22.3771 28.6175 22.6776 28.0611 22.6776C27.783 22.6776 27.3804 22.3771 27.3804 21.5185V13.4897C27.3804 12.4592 27.0575 12 26.1301 12H19.2536C18.5582 12 18.1401 12.4783 18.1401 12.9315C18.1401 13.9084 19.7162 14.1336 19.8787 16.8815V22.8494C19.8787 24.1579 19.6235 24.3951 19.0672 24.3951C17.5837 24.3951 13.9751 19.3493 11.8349 13.5755C11.4155 12.4533 10.9948 12 9.87638 12H5.50036C4.25007 12 4 12.5451 4 13.1461C4 14.2195 5.48357 19.5435 10.9077 26.5847C14.5238 31.3934 19.6186 34 24.2547 34C27.0363 34 27.3804 33.4211 27.3804 32.4238V28.7895C27.3804 27.6316 27.644 27.4005 28.5248 27.4005C29.1738 27.4005 30.2865 27.701 32.8827 30.0195C35.8498 32.7673 36.339 34 38.0079 34H42.3839C43.6342 34 44.2594 33.4211 43.8987 32.2785C43.5041 31.1398 42.0875 29.4877 40.2078 27.5293C39.1878 26.413 37.6579 25.2109 37.1942 24.6097C36.5452 23.8369 36.7307 23.4934 37.1942 22.8065C37.1942 22.8065 42.5258 15.8511 43.0821 13.4897Z" fill="currentColor"/>
</symbol>
<symbol id="icon_whatsapp" viewBox="0 0 48 48">
    <path fill="currentColor" d="m24.35,6.47058c-9.88028,0 -17.92105,7.74465 -17.92453,17.2626c-0.00232,3.0437 0.82451,6.0143 2.39226,8.6307l-2.54323,8.9454l9.50284,-2.4004c2.64336,1.3827 5.58256,2.104 8.56566,2.102l0.007,0c9.8802,0 17.921,-7.7458 17.9245,-17.2638c0.0023,-4.6103 -1.8604,-8.95005 -5.2456,-12.21211c-3.3839,-3.26323 -7.8839,-5.06323 -12.6789,-5.06439zm0,31.6243l-0.0058,0c-2.6733,0 -5.2955,-0.6922 -7.5832,-1.9998l-0.54585,-0.3112l-5.63691,1.4237l1.50503,-5.2954l-0.35419,-0.5424c-1.48772,-2.269 -2.27969,-4.9234 -2.27845,-7.6366c0.00348,-7.91189 6.68787,-14.3466 14.90517,-14.3466c3.9786,0.00116 7.7191,1.49574 10.5329,4.20736c2.8138,2.71161 4.3618,6.31744 4.3595,10.15204c-0.0035,7.9118 -6.6867,14.3489 -14.8994,14.3489l0.0012,0zm8.172,-10.7478c-0.4483,-0.2148 -2.6501,-1.2588 -3.0612,-1.404c-0.4099,-0.1428 -0.7084,-0.2171 -1.0068,0.2149c-0.2973,0.432 -1.1567,1.404 -1.4168,1.6908c-0.2624,0.288 -0.5237,0.3228 -0.972,0.108c-0.4482,-0.216 -1.8917,-0.6712 -3.6012,-2.1414c-1.332,-1.1427 -2.2308,-2.5549 -2.4921,-2.988c-0.2613,-0.4309 -0.0279,-0.6643 0.1963,-0.8791c0.2009,-0.1916 0.4482,-0.5029 0.6712,-0.7549c0.223,-0.252 0.2973,-0.432 0.4483,-0.72c0.1486,-0.2868 0.0743,-0.54 -0.0384,-0.7548c-0.1126,-0.2172 -1.0068,-2.34 -1.3819,-3.2028c-0.3623,-0.84081 -0.7316,-0.72817 -1.0068,-0.7421c-0.2613,-0.01162 -0.5586,-0.0151 -0.8594,-0.0151c-0.2961,0 -0.7827,0.108 -1.1938,0.54c-0.4099,0.432 -1.56774,1.4748 -1.56774,3.5977c0,2.124 1.60494,4.1748 1.82904,4.4628c0.2241,0.2869 3.1587,4.6452 7.6517,6.5149c1.0684,0.4424 1.9022,0.7083 2.5537,0.9081c1.073,0.3286 2.0497,0.281 2.8208,0.1707c0.8593,-0.1243 2.6501,-1.0428 3.0217,-2.0497c0.3739,-1.0068 0.3739,-1.8708 0.2624,-2.0508c-0.1091,-0.18 -0.4088,-0.288 -0.857,-0.5052z"/>
</symbol>
<symbol id="icon_youtube" viewBox="0 0 48 48">
<path fill-rule="evenodd" clip-rule="evenodd" d="M39.5841 10.8297C41.3042 11.2918 42.665 12.6525 43.1271 14.3727C43.9743 17.5049 44 24.0004 44 24.0004C44 24.0004 44 30.5216 43.1528 33.6281C42.6906 35.3483 41.3299 36.709 39.6098 37.1711C36.5032 38.0184 24 38.0184 24 38.0184C24 38.0184 11.4968 38.0184 8.39025 37.1711C6.67009 36.709 5.30937 35.3483 4.84724 33.6281C4 30.4959 4 24.0004 4 24.0004C4 24.0004 4 17.5049 4.82157 14.3983C5.2837 12.6782 6.64442 11.3175 8.36457 10.8553C11.4711 10.0081 23.9743 9.98242 23.9743 9.98242C23.9743 9.98242 36.4775 9.98242 39.5841 10.8297ZM30.3671 24.0004L19.9949 30.0081V17.9927L30.3671 24.0004Z" fill="currentColor"/>
</symbol>
</svg>